<svg xmlns="http://www.w3.org/2000/svg" xmlns:xlink="http://www.w3.org/1999/xlink" width="1024" zoomAndPan="magnify" viewBox="0 0 768 767.999994" height="1024" preserveAspectRatio="xMidYMid meet" version="1.0"><defs><g/><linearGradient x1="0" gradientTransform="matrix(0.75, 0, 0, 0.75, 0.000003, 0.00002)" y1="0" x2="1023.999957" gradientUnits="userSpaceOnUse" y2="0" id="ed707956b6"><stop stop-opacity="1" stop-color="rgb(65.098572%, 65.098572%, 65.098572%)" offset="0"/><stop stop-opacity="1" stop-color="rgb(65.234375%, 65.234375%, 65.234375%)" offset="0.0078125"/><stop stop-opacity="1" stop-color="rgb(65.507507%, 65.507507%, 65.507507%)" offset="0.015625"/><stop stop-opacity="1" stop-color="rgb(65.78064%, 65.78064%, 65.78064%)" offset="0.0234375"/><stop stop-opacity="1" stop-color="rgb(66.052246%, 66.052246%, 66.052246%)" offset="0.03125"/><stop stop-opacity="1" stop-color="rgb(66.325378%, 66.325378%, 66.325378%)" offset="0.0390625"/><stop stop-opacity="1" stop-color="rgb(66.598511%, 66.598511%, 66.598511%)" offset="0.046875"/><stop stop-opacity="1" stop-color="rgb(66.871643%, 66.871643%, 66.871643%)" offset="0.0546875"/><stop stop-opacity="1" stop-color="rgb(67.14325%, 67.14325%, 67.14325%)" offset="0.0625"/><stop stop-opacity="1" stop-color="rgb(67.416382%, 67.416382%, 67.416382%)" offset="0.0703125"/><stop stop-opacity="1" stop-color="rgb(67.689514%, 67.689514%, 67.689514%)" offset="0.078125"/><stop stop-opacity="1" stop-color="rgb(67.961121%, 67.961121%, 67.961121%)" offset="0.0859375"/><stop stop-opacity="1" stop-color="rgb(68.234253%, 68.234253%, 68.234253%)" offset="0.09375"/><stop stop-opacity="1" stop-color="rgb(68.507385%, 68.507385%, 68.507385%)" offset="0.101562"/><stop stop-opacity="1" stop-color="rgb(68.778992%, 68.778992%, 68.778992%)" offset="0.109375"/><stop stop-opacity="1" stop-color="rgb(69.052124%, 69.052124%, 69.052124%)" offset="0.117188"/><stop stop-opacity="1" stop-color="rgb(69.325256%, 69.325256%, 69.325256%)" offset="0.125"/><stop stop-opacity="1" stop-color="rgb(69.596863%, 69.596863%, 69.596863%)" offset="0.132812"/><stop stop-opacity="1" stop-color="rgb(69.869995%, 69.869995%, 69.869995%)" offset="0.140625"/><stop stop-opacity="1" stop-color="rgb(70.143127%, 70.143127%, 70.143127%)" offset="0.148438"/><stop stop-opacity="1" stop-color="rgb(70.41626%, 70.41626%, 70.41626%)" offset="0.15625"/><stop stop-opacity="1" stop-color="rgb(70.687866%, 70.687866%, 70.687866%)" offset="0.164062"/><stop stop-opacity="1" stop-color="rgb(70.960999%, 70.960999%, 70.960999%)" offset="0.171875"/><stop stop-opacity="1" stop-color="rgb(71.234131%, 71.234131%, 71.234131%)" offset="0.179688"/><stop stop-opacity="1" stop-color="rgb(71.505737%, 71.505737%, 71.505737%)" offset="0.1875"/><stop stop-opacity="1" stop-color="rgb(71.77887%, 71.77887%, 71.77887%)" offset="0.195312"/><stop stop-opacity="1" stop-color="rgb(72.052002%, 72.052002%, 72.052002%)" offset="0.203125"/><stop stop-opacity="1" stop-color="rgb(72.323608%, 72.323608%, 72.323608%)" offset="0.210938"/><stop stop-opacity="1" stop-color="rgb(72.596741%, 72.596741%, 72.596741%)" offset="0.21875"/><stop stop-opacity="1" stop-color="rgb(72.869873%, 72.869873%, 72.869873%)" offset="0.226562"/><stop stop-opacity="1" stop-color="rgb(73.141479%, 73.141479%, 73.141479%)" offset="0.234375"/><stop stop-opacity="1" stop-color="rgb(73.414612%, 73.414612%, 73.414612%)" offset="0.242188"/><stop stop-opacity="1" stop-color="rgb(73.687744%, 73.687744%, 73.687744%)" offset="0.25"/><stop stop-opacity="1" stop-color="rgb(73.959351%, 73.959351%, 73.959351%)" offset="0.257812"/><stop stop-opacity="1" stop-color="rgb(74.232483%, 74.232483%, 74.232483%)" offset="0.265625"/><stop stop-opacity="1" stop-color="rgb(74.505615%, 74.505615%, 74.505615%)" offset="0.273438"/><stop stop-opacity="1" stop-color="rgb(74.778748%, 74.778748%, 74.778748%)" offset="0.28125"/><stop stop-opacity="1" stop-color="rgb(75.050354%, 75.050354%, 75.050354%)" offset="0.289062"/><stop stop-opacity="1" stop-color="rgb(75.323486%, 75.323486%, 75.323486%)" offset="0.296875"/><stop stop-opacity="1" stop-color="rgb(75.596619%, 75.596619%, 75.596619%)" offset="0.304688"/><stop stop-opacity="1" stop-color="rgb(75.868225%, 75.868225%, 75.868225%)" offset="0.3125"/><stop stop-opacity="1" stop-color="rgb(76.141357%, 76.141357%, 76.141357%)" offset="0.320312"/><stop stop-opacity="1" stop-color="rgb(76.41449%, 76.41449%, 76.41449%)" offset="0.328125"/><stop stop-opacity="1" stop-color="rgb(76.686096%, 76.686096%, 76.686096%)" offset="0.335938"/><stop stop-opacity="1" stop-color="rgb(76.959229%, 76.959229%, 76.959229%)" offset="0.34375"/><stop stop-opacity="1" stop-color="rgb(77.232361%, 77.232361%, 77.232361%)" offset="0.351562"/><stop stop-opacity="1" stop-color="rgb(77.503967%, 77.503967%, 77.503967%)" offset="0.359375"/><stop stop-opacity="1" stop-color="rgb(77.7771%, 77.7771%, 77.7771%)" offset="0.367188"/><stop stop-opacity="1" stop-color="rgb(78.050232%, 78.050232%, 78.050232%)" offset="0.375"/><stop stop-opacity="1" stop-color="rgb(78.321838%, 78.321838%, 78.321838%)" offset="0.382812"/><stop stop-opacity="1" stop-color="rgb(78.594971%, 78.594971%, 78.594971%)" offset="0.390625"/><stop stop-opacity="1" stop-color="rgb(78.868103%, 78.868103%, 78.868103%)" offset="0.398438"/><stop stop-opacity="1" stop-color="rgb(79.141235%, 79.141235%, 79.141235%)" offset="0.40625"/><stop stop-opacity="1" stop-color="rgb(79.412842%, 79.412842%, 79.412842%)" offset="0.414062"/><stop stop-opacity="1" stop-color="rgb(79.685974%, 79.685974%, 79.685974%)" offset="0.421875"/><stop stop-opacity="1" stop-color="rgb(79.959106%, 79.959106%, 79.959106%)" offset="0.429688"/><stop stop-opacity="1" stop-color="rgb(80.230713%, 80.230713%, 80.230713%)" offset="0.4375"/><stop stop-opacity="1" stop-color="rgb(80.503845%, 80.503845%, 80.503845%)" offset="0.445312"/><stop stop-opacity="1" stop-color="rgb(80.776978%, 80.776978%, 80.776978%)" offset="0.453125"/><stop stop-opacity="1" stop-color="rgb(81.048584%, 81.048584%, 81.048584%)" offset="0.460938"/><stop stop-opacity="1" stop-color="rgb(81.321716%, 81.321716%, 81.321716%)" offset="0.46875"/><stop stop-opacity="1" stop-color="rgb(81.594849%, 81.594849%, 81.594849%)" offset="0.476562"/><stop stop-opacity="1" stop-color="rgb(81.866455%, 81.866455%, 81.866455%)" offset="0.484375"/><stop stop-opacity="1" stop-color="rgb(82.139587%, 82.139587%, 82.139587%)" offset="0.492188"/><stop stop-opacity="1" stop-color="rgb(82.41272%, 82.41272%, 82.41272%)" offset="0.5"/><stop stop-opacity="1" stop-color="rgb(82.684326%, 82.684326%, 82.684326%)" offset="0.507812"/><stop stop-opacity="1" stop-color="rgb(82.957458%, 82.957458%, 82.957458%)" offset="0.515625"/><stop stop-opacity="1" stop-color="rgb(83.230591%, 83.230591%, 83.230591%)" offset="0.523438"/><stop stop-opacity="1" stop-color="rgb(83.503723%, 83.503723%, 83.503723%)" offset="0.53125"/><stop stop-opacity="1" stop-color="rgb(83.77533%, 83.77533%, 83.77533%)" offset="0.539062"/><stop stop-opacity="1" stop-color="rgb(84.048462%, 84.048462%, 84.048462%)" offset="0.546875"/><stop stop-opacity="1" stop-color="rgb(84.321594%, 84.321594%, 84.321594%)" offset="0.554688"/><stop stop-opacity="1" stop-color="rgb(84.593201%, 84.593201%, 84.593201%)" offset="0.5625"/><stop stop-opacity="1" stop-color="rgb(84.866333%, 84.866333%, 84.866333%)" offset="0.570312"/><stop stop-opacity="1" stop-color="rgb(85.139465%, 85.139465%, 85.139465%)" offset="0.578125"/><stop stop-opacity="1" stop-color="rgb(85.411072%, 85.411072%, 85.411072%)" offset="0.585938"/><stop stop-opacity="1" stop-color="rgb(85.684204%, 85.684204%, 85.684204%)" offset="0.59375"/><stop stop-opacity="1" stop-color="rgb(85.957336%, 85.957336%, 85.957336%)" offset="0.601562"/><stop stop-opacity="1" stop-color="rgb(86.228943%, 86.228943%, 86.228943%)" offset="0.609375"/><stop stop-opacity="1" stop-color="rgb(86.502075%, 86.502075%, 86.502075%)" offset="0.617188"/><stop stop-opacity="1" stop-color="rgb(86.775208%, 86.775208%, 86.775208%)" offset="0.625"/><stop stop-opacity="1" stop-color="rgb(87.046814%, 87.046814%, 87.046814%)" offset="0.632812"/><stop stop-opacity="1" stop-color="rgb(87.319946%, 87.319946%, 87.319946%)" offset="0.640625"/><stop stop-opacity="1" stop-color="rgb(87.593079%, 87.593079%, 87.593079%)" offset="0.648438"/><stop stop-opacity="1" stop-color="rgb(87.866211%, 87.866211%, 87.866211%)" offset="0.65625"/><stop stop-opacity="1" stop-color="rgb(88.137817%, 88.137817%, 88.137817%)" offset="0.664062"/><stop stop-opacity="1" stop-color="rgb(88.41095%, 88.41095%, 88.41095%)" offset="0.671875"/><stop stop-opacity="1" stop-color="rgb(88.684082%, 88.684082%, 88.684082%)" offset="0.679688"/><stop stop-opacity="1" stop-color="rgb(88.955688%, 88.955688%, 88.955688%)" offset="0.6875"/><stop stop-opacity="1" stop-color="rgb(89.228821%, 89.228821%, 89.228821%)" offset="0.695312"/><stop stop-opacity="1" stop-color="rgb(89.501953%, 89.501953%, 89.501953%)" offset="0.703125"/><stop stop-opacity="1" stop-color="rgb(89.77356%, 89.77356%, 89.77356%)" offset="0.710938"/><stop stop-opacity="1" stop-color="rgb(90.046692%, 90.046692%, 90.046692%)" offset="0.71875"/><stop stop-opacity="1" stop-color="rgb(90.319824%, 90.319824%, 90.319824%)" offset="0.726562"/><stop stop-opacity="1" stop-color="rgb(90.591431%, 90.591431%, 90.591431%)" offset="0.734375"/><stop stop-opacity="1" stop-color="rgb(90.864563%, 90.864563%, 90.864563%)" offset="0.742188"/><stop stop-opacity="1" stop-color="rgb(91.137695%, 91.137695%, 91.137695%)" offset="0.75"/><stop stop-opacity="1" stop-color="rgb(91.409302%, 91.409302%, 91.409302%)" offset="0.757812"/><stop stop-opacity="1" stop-color="rgb(91.682434%, 91.682434%, 91.682434%)" offset="0.765625"/><stop stop-opacity="1" stop-color="rgb(91.955566%, 91.955566%, 91.955566%)" offset="0.773438"/><stop stop-opacity="1" stop-color="rgb(92.228699%, 92.228699%, 92.228699%)" offset="0.78125"/><stop stop-opacity="1" stop-color="rgb(92.500305%, 92.500305%, 92.500305%)" offset="0.789062"/><stop stop-opacity="1" stop-color="rgb(92.773438%, 92.773438%, 92.773438%)" offset="0.796875"/><stop stop-opacity="1" stop-color="rgb(93.04657%, 93.04657%, 93.04657%)" offset="0.804688"/><stop stop-opacity="1" stop-color="rgb(93.318176%, 93.318176%, 93.318176%)" offset="0.8125"/><stop stop-opacity="1" stop-color="rgb(93.591309%, 93.591309%, 93.591309%)" offset="0.820312"/><stop stop-opacity="1" stop-color="rgb(93.864441%, 93.864441%, 93.864441%)" offset="0.828125"/><stop stop-opacity="1" stop-color="rgb(94.136047%, 94.136047%, 94.136047%)" offset="0.835938"/><stop stop-opacity="1" stop-color="rgb(94.40918%, 94.40918%, 94.40918%)" offset="0.84375"/><stop stop-opacity="1" stop-color="rgb(94.682312%, 94.682312%, 94.682312%)" offset="0.851562"/><stop stop-opacity="1" stop-color="rgb(94.953918%, 94.953918%, 94.953918%)" offset="0.859375"/><stop stop-opacity="1" stop-color="rgb(95.227051%, 95.227051%, 95.227051%)" offset="0.867188"/><stop stop-opacity="1" stop-color="rgb(95.500183%, 95.500183%, 95.500183%)" offset="0.875"/><stop stop-opacity="1" stop-color="rgb(95.77179%, 95.77179%, 95.77179%)" offset="0.882812"/><stop stop-opacity="1" stop-color="rgb(96.044922%, 96.044922%, 96.044922%)" offset="0.890625"/><stop stop-opacity="1" stop-color="rgb(96.318054%, 96.318054%, 96.318054%)" offset="0.898438"/><stop stop-opacity="1" stop-color="rgb(96.591187%, 96.591187%, 96.591187%)" offset="0.90625"/><stop stop-opacity="1" stop-color="rgb(96.862793%, 96.862793%, 96.862793%)" offset="0.914062"/><stop stop-opacity="1" stop-color="rgb(97.135925%, 97.135925%, 97.135925%)" offset="0.921875"/><stop stop-opacity="1" stop-color="rgb(97.409058%, 97.409058%, 97.409058%)" offset="0.929688"/><stop stop-opacity="1" stop-color="rgb(97.680664%, 97.680664%, 97.680664%)" offset="0.9375"/><stop stop-opacity="1" stop-color="rgb(97.953796%, 97.953796%, 97.953796%)" offset="0.945312"/><stop stop-opacity="1" stop-color="rgb(98.226929%, 98.226929%, 98.226929%)" offset="0.953125"/><stop stop-opacity="1" stop-color="rgb(98.498535%, 98.498535%, 98.498535%)" offset="0.960938"/><stop stop-opacity="1" stop-color="rgb(98.771667%, 98.771667%, 98.771667%)" offset="0.96875"/><stop stop-opacity="1" stop-color="rgb(99.0448%, 99.0448%, 99.0448%)" offset="0.976562"/><stop stop-opacity="1" stop-color="rgb(99.316406%, 99.316406%, 99.316406%)" offset="0.984375"/><stop stop-opacity="1" stop-color="rgb(99.589539%, 99.589539%, 99.589539%)" offset="0.992188"/><stop stop-opacity="1" stop-color="rgb(99.862671%, 99.862671%, 99.862671%)" offset="1"/></linearGradient><clipPath id="240fabe8c5"><path d="M 431 591 L 543 591 L 543 691.328125 L 431 691.328125 Z M 431 591 " clip-rule="nonzero"/></clipPath></defs><rect x="-76.8" fill="url(#ed707956b6)" width="921.6" y="-76.799999" height="921.599993"/><path fill="#e1a344" d="M 231.808594 153.578125 C 183.742188 183.765625 147.386719 231.304688 129.921875 288.902344 C 77.046875 463.269531 214.0625 651.25 395.082031 647.003906 C 410.164062 646.65625 411.289062 646.578125 421.339844 645.1875 C 441.109375 642.460938 465.570312 635.949219 479.511719 629.699219 C 481.601562 628.761719 483.835938 628 484.507812 628 C 485.503906 628 544.472656 605.878906 586.921875 542.171875 C 601.171875 520.789062 612.617188 495.410156 619.777344 469.320312 C 622.597656 459.046875 626.964844 437.289062 626.339844 436.628906 C 626.121094 436.398438 621.46875 443.210938 616.269531 449.246094 C 614.125 451.730469 610.839844 455.886719 608.914062 458.539062 C 579.671875 498.769531 541.75 528.804688 497.304688 546.941406 C 484.484375 552.175781 461.769531 559.101562 451.671875 560.859375 C 450.070312 561.136719 447.265625 561.632812 445.511719 561.949219 C 427.753906 565.140625 427.457031 564.277344 422.753906 565.125 C 421.929688 565.273438 396.265625 566.457031 380.398438 565.113281 C 367.746094 564.039062 347.417969 560.691406 338.890625 558.269531 C 337.34375 557.835938 334.148438 556.921875 331.828125 556.269531 C 244.683594 531.445312 174.789062 457.023438 163.726562 357.964844 C 162.5 347.007812 162.347656 321.492188 163.441406 310.921875 C 165.085938 295.058594 169.324219 274.730469 174.003906 260.21875 C 182.96875 232.433594 200.902344 198.082031 216.511719 178.785156 C 219.023438 175.679688 223.097656 170.652344 225.558594 167.605469 C 230.175781 161.90625 238.371094 150.339844 238.027344 150.023438 C 237.796875 149.820312 231.882812 153.578125 231.808594 153.578125 " fill-opacity="1" fill-rule="nonzero"/><path fill="#0c0a27" d="M 278.785156 621.851562 C 276.703125 623.015625 272.136719 625.089844 268.070312 626.671875 C 262.085938 628.996094 253.246094 630.925781 248.589844 630.925781 C 244.941406 630.925781 234.246094 629.136719 228.484375 627.558594 C 226.171875 626.921875 220.519531 625.671875 215.835938 624.746094 C 194.351562 620.515625 191.121094 617.246094 170.367188 616.25 C 150.546875 615.304688 146.261719 613.753906 134.117188 603.175781 C 130.871094 600.351562 124.113281 596.496094 120.386719 595.351562 C 116.5625 594.167969 116.832031 593.664062 121.292969 593.664062 C 125.640625 593.664062 132.871094 595.296875 138.632812 597.578125 C 140.238281 598.210938 144.699219 599.5625 148.484375 600.550781 C 154.191406 602.035156 156.492188 602.363281 161.621094 602.382812 C 168.769531 602.410156 171.164062 601.746094 182.511719 596.628906 C 190.136719 593.191406 199.039062 589.71875 203.804688 588.328125 C 207.699219 587.1875 210.5625 585.332031 213.472656 582.03125 C 214.15625 581.253906 215.027344 580.484375 215.839844 579.90625 C 234.761719 596.671875 255.90625 610.886719 278.785156 621.851562 " fill-opacity="1" fill-rule="nonzero"/><g clip-path="url(#240fabe8c5)"><path fill="#0c0a27" d="M 542.808594 592.300781 C 541.308594 597.046875 539.441406 601.214844 537.449219 604.273438 C 536.15625 606.246094 535.09375 608.179688 535.09375 608.535156 C 535.09375 609.453125 529.511719 617.804688 527.417969 621.941406 C 517.304688 641.960938 496.113281 651.390625 478.496094 663.773438 C 463.703125 674.171875 447.617188 684.984375 445.011719 686.292969 C 441.960938 687.8125 435.371094 690.261719 432.582031 690.902344 C 430.800781 691.3125 431.453125 690.84375 441.339844 684.582031 C 451.445312 678.1875 452.09375 672.796875 462.394531 660.230469 C 467.300781 654.238281 474.714844 642.515625 475.808594 638.996094 C 476.703125 636.101562 478.757812 632.160156 480.84375 629.136719 C 482.480469 628.472656 483.984375 628 484.507812 628 C 485.1875 628 512.277344 617.917969 542.875 591.757812 C 542.898438 591.90625 542.878906 592.085938 542.808594 592.300781 " fill-opacity="1" fill-rule="nonzero"/></g><path fill="#0c0a27" d="M 304.125 288.890625 C 304.078125 289.808594 306.816406 289.210938 310.3125 287.546875 C 315.304688 285.164062 319.804688 284.207031 325.957031 284.207031 C 331.574219 284.207031 333.414062 284.675781 343.636719 288.71875 C 358.601562 294.636719 359.933594 294.792969 361.726562 290.8125 C 364.140625 285.460938 362.5 283.375 353.632812 280.574219 C 346.121094 278.191406 336.128906 275.875 331.773438 275.496094 C 320.464844 274.523438 304.296875 285.125 304.125 288.890625 " fill-opacity="1" fill-rule="nonzero"/><path fill="#0c0a27" d="M 442.582031 311.332031 C 436.328125 315.136719 431.625 315.527344 419.484375 313.242188 C 407.507812 310.988281 401.289062 311.332031 400.332031 314.304688 C 399.800781 315.949219 400.957031 316.398438 405.761719 316.417969 C 412.703125 316.449219 414.632812 317.128906 418.46875 320.90625 C 424.230469 326.589844 421.035156 321.605469 425.863281 324.902344 C 428.066406 326.40625 430.609375 327.082031 430.609375 326.164062 C 430.609375 325.726562 427.761719 323.222656 425.804688 321.476562 C 432.699219 324.722656 436.824219 326.949219 436.824219 324.863281 C 436.824219 324.554688 436.003906 323.773438 434.988281 323.117188 C 433.972656 322.460938 433.601562 322.082031 434.164062 322.265625 C 436.425781 323.011719 444.726562 323.324219 444.726562 322.664062 C 444.726562 322.328125 443.992188 321.875 443.144531 321.691406 C 430.519531 318.882812 441.28125 319.53125 444.984375 318.117188 C 446.28125 317.621094 446.421875 317.386719 445.828125 316.675781 C 445.335938 316.089844 444.554688 315.933594 443.257812 316.171875 C 440.210938 316.734375 439.953125 315.875 442.636719 314.097656 C 448.390625 310.289062 448.339844 307.828125 442.582031 311.332031 " fill-opacity="1" fill-rule="nonzero"/><path fill="#0c0a27" d="M 307.035156 311.140625 C 307.300781 312.519531 312.710938 315.570312 313.054688 316.453125 C 313.164062 316.730469 311.953125 316.960938 310.371094 316.960938 C 308.28125 316.960938 307.492188 317.175781 307.492188 317.75 C 307.492188 318.589844 311.785156 319.78125 314.832031 319.78125 C 315.796875 319.78125 316.53125 320.03125 316.53125 320.347656 C 316.53125 320.820312 315.175781 321.277344 310.714844 322.300781 C 309.808594 322.507812 309.230469 322.949219 309.363281 323.339844 C 309.859375 324.789062 317.609375 323.355469 319.070312 323.117188 L 317.769531 324.246094 C 316.441406 325.40625 316.53125 326.5625 317.9375 326.5625 C 318.886719 326.5625 327.222656 322.3125 328.667969 321.589844 C 323.996094 325.675781 323.304688 326.433594 323.304688 326.671875 C 323.304688 327.664062 326.015625 326.941406 328.046875 325.398438 C 332.859375 321.765625 329.03125 327.769531 335.332031 321.617188 C 337.257812 319.742188 339.472656 318.007812 340.25 317.773438 C 341.023438 317.546875 344.203125 317.203125 347.308594 317.015625 C 352.613281 316.695312 352.964844 316.597656 353.125 315.410156 C 353.261719 314.386719 352.902344 313.96875 351.316406 313.296875 C 348.4375 312.074219 343.691406 312.230469 334.488281 313.855469 C 322.007812 316.054688 317.25 315.707031 311.277344 312.164062 C 307.609375 309.984375 306.765625 309.78125 307.035156 311.140625 " fill-opacity="1" fill-rule="nonzero"/><path fill="#0c0a27" d="M 351.933594 365.015625 C 351.890625 368.0625 352.558594 369.089844 355.605469 370.640625 C 358.039062 371.878906 360.542969 372.160156 358.660156 370.984375 C 355.441406 368.972656 353.800781 367.039062 353.800781 365.242188 C 353.800781 363.371094 356.308594 358.125 358.679688 355.023438 C 359.414062 354.058594 359.835938 353.097656 359.621094 352.886719 C 358.75 352.050781 357.726562 352.703125 355.816406 355.304688 C 356.1875 355.304688 352.015625 359.113281 351.933594 365.015625 " fill-opacity="1" fill-rule="nonzero"/><path fill="#0c0a27" d="M 395.140625 360.328125 C 397.183594 365.242188 397.007812 366.539062 393.84375 369.703125 C 392.65625 370.886719 391.765625 372.035156 391.910156 372.183594 C 392.476562 372.777344 394.476562 371.566406 396.371094 369.476562 C 398.039062 367.636719 398.417969 366.765625 398.417969 364.789062 C 398.417969 361.289062 394.707031 354.195312 393.722656 355.808594 C 393.796875 355.808594 393.292969 355.890625 395.140625 360.328125 " fill-opacity="1" fill-rule="nonzero"/><path fill="#0c0a27" d="M 359 363.941406 C 357.328125 365.609375 358.546875 367.21875 361.484375 367.21875 C 362.242188 367.21875 364.082031 367.691406 365.664062 368.292969 C 370.011719 369.949219 370.066406 368.488281 365.773438 365.222656 C 363.121094 363.199219 360.277344 362.664062 359 363.941406 " fill-opacity="1" fill-rule="nonzero"/><path fill="#0c0a27" d="M 385.714844 364.75 C 383.675781 365.839844 382.039062 367.238281 382.039062 367.894531 C 382.039062 368.601562 389.152344 368.453125 390.792969 367.714844 C 392.316406 367.019531 392.636719 365.621094 391.527344 364.507812 C 390.570312 363.550781 387.746094 363.667969 385.714844 364.75 " fill-opacity="1" fill-rule="nonzero"/><path fill="#0c0a27" d="M 365.046875 388.929688 C 359.597656 391.015625 355.078125 393.96875 346.675781 400.933594 C 344.285156 402.910156 342.082031 404.546875 341.820312 404.539062 C 341.554688 404.527344 341.324219 404.96875 341.300781 405.535156 C 341.210938 407.898438 347.320312 412.148438 355.398438 415.324219 C 358.125 416.398438 361.652344 417.796875 363.246094 418.433594 C 371.527344 421.742188 385.617188 420.296875 397.230469 414.945312 C 404.253906 411.714844 412.464844 406.738281 412.503906 405.695312 C 412.515625 405.386719 410.847656 403.90625 408.816406 402.417969 C 394.851562 392.214844 391.851562 386.4375 378.773438 389.0625 C 376.269531 389.5625 375.453125 389.523438 373.980469 388.84375 C 370.894531 387.414062 368.949219 387.433594 365.046875 388.929688 " fill-opacity="1" fill-rule="nonzero"/><path fill="#0c0a27" d="M 563.433594 426.175781 C 558.53125 426.175781 558.535156 418.566406 563.433594 418.566406 C 568.339844 418.566406 568.328125 426.175781 563.433594 426.175781 Z M 534.070312 445.484375 C 529.082031 444.664062 524.269531 447.714844 522.890625 452.582031 L 519.097656 465.964844 L 517.007812 452.210938 C 516.246094 447.214844 511.851562 443.585938 506.804688 443.777344 L 492.90625 444.304688 L 505.335938 438.066406 C 509.855469 435.796875 511.949219 430.5 510.207031 425.753906 L 505.410156 412.699219 L 515.183594 422.59375 C 518.738281 426.191406 524.425781 426.550781 528.402344 423.421875 L 539.335938 414.828125 L 532.945312 427.179688 C 530.621094 431.671875 532.039062 437.1875 536.238281 440.003906 L 547.796875 447.746094 Z M 521.800781 364.964844 C 527.597656 364.964844 527.589844 373.957031 521.800781 373.957031 C 516.007812 373.957031 516.019531 364.964844 521.800781 364.964844 Z M 525.304688 399.632812 C 519.507812 399.632812 519.515625 390.640625 525.304688 390.640625 C 531.097656 390.640625 531.089844 399.632812 525.304688 399.632812 Z M 474.550781 226.527344 C 473.003906 226.902344 471.789062 228.09375 471.390625 229.632812 L 468.699219 239.964844 L 466.179688 229.589844 C 465.808594 228.042969 464.617188 226.835938 463.082031 226.429688 L 452.742188 223.738281 L 463.125 221.226562 C 464.664062 220.847656 465.878906 219.65625 466.277344 218.121094 L 468.972656 207.789062 L 471.488281 218.164062 C 471.863281 219.707031 473.054688 220.921875 474.59375 221.320312 L 484.925781 224.011719 Z M 478.613281 246.179688 C 475.046875 246.179688 475.054688 240.644531 478.613281 240.644531 C 482.179688 240.644531 482.175781 246.179688 478.613281 246.179688 Z M 463.492188 515.722656 C 461.953125 516.097656 460.738281 517.285156 460.335938 518.828125 L 457.648438 529.15625 L 455.128906 518.777344 C 454.757812 517.238281 453.566406 516.023438 452.023438 515.625 L 441.691406 512.933594 L 452.070312 510.414062 C 453.613281 510.042969 454.824219 508.851562 455.226562 507.3125 L 457.917969 496.984375 L 460.433594 507.359375 C 460.8125 508.898438 462 510.113281 463.539062 510.511719 L 473.871094 513.203125 Z M 457.605469 242.203125 C 461.171875 242.203125 461.167969 247.734375 457.605469 247.734375 C 454.035156 247.734375 454.042969 242.203125 457.605469 242.203125 Z M 417.535156 426.339844 C 410.761719 434.808594 408.09375 438.699219 404.039062 445.992188 C 400.933594 451.585938 400.871094 451.652344 397.542969 452.992188 C 394.355469 454.28125 393.5625 454.355469 382.039062 454.40625 C 370.6875 454.457031 369.507812 454.363281 363.914062 452.941406 C 356.511719 451.066406 348.097656 447.609375 342.675781 444.234375 C 337.378906 440.929688 320.246094 423.628906 313.664062 414.9375 C 303.675781 401.742188 298.445312 390.988281 293.617188 373.710938 C 290.527344 362.640625 292.050781 366.261719 289.703125 323.167969 C 288.746094 305.632812 288.726562 291.730469 288.628906 280.085938 C 296.925781 277.078125 296.644531 277.410156 306.644531 271.5625 C 328.640625 258.714844 349.050781 235.34375 357.191406 228.886719 C 363.761719 223.675781 374.191406 220.015625 386.105469 218.742188 C 392.601562 218.046875 396.921875 216.984375 398.699219 215.644531 C 400.167969 214.539062 401.242188 214.546875 401.242188 215.652344 C 401.328125 215.652344 400.8125 215.167969 403.453125 223.390625 C 406.421875 232.652344 406.472656 232.972656 405.722656 236.828125 C 404.496094 243.074219 399.433594 249.175781 392.601562 252.660156 C 388.929688 254.527344 377.773438 259.363281 377.125 259.363281 C 376.90625 259.363281 373.679688 260.875 369.953125 262.71875 C 357.132812 269.074219 354.863281 272.976562 366.285156 269.023438 C 369.53125 267.898438 372.722656 267.257812 376.390625 266.992188 C 387.464844 266.191406 398.058594 263.644531 406.042969 259.871094 C 414.117188 256.058594 420.855469 248.605469 423.25 240.839844 C 423.789062 239.089844 424.457031 237.601562 424.738281 237.503906 C 425.503906 237.253906 437.644531 247.21875 439.867188 249.929688 C 444.570312 255.679688 446.355469 262.074219 446.808594 274.835938 L 447.15625 284.429688 C 434.839844 275.644531 426.675781 272.65625 410.84375 276.78125 C 394.355469 281.078125 390.8125 282.835938 390.910156 286.691406 C 390.96875 289.179688 392.511719 292.007812 394.238281 292.804688 C 395.714844 293.484375 398.304688 292.730469 408.300781 288.730469 C 419.988281 284.050781 421.53125 283.644531 427.503906 283.644531 C 433.941406 283.644531 438.183594 284.496094 443.257812 286.816406 L 446.816406 288.441406 C 447.265625 294.839844 448.0625 306.609375 448.726562 313.007812 C 449.75 322.886719 448.195312 331.863281 444.085938 339.832031 C 440.105469 347.542969 436.707031 351.421875 424.902344 361.707031 C 416.546875 368.996094 411.957031 373.992188 411.136719 376.703125 C 409.949219 380.632812 416.375 373.917969 422.699219 369.703125 C 428.09375 366.105469 431.753906 363.648438 438.175781 359.375 C 445.984375 354.179688 450.203125 349.257812 457.84375 336.441406 C 458.683594 335.03125 459.582031 333.898438 459.863281 333.898438 C 460.644531 333.898438 460.464844 341.707031 462.628906 351.6875 C 463.890625 357.503906 464.054688 359.386719 463.78125 364.957031 C 463.273438 375.347656 460 384.542969 453.882812 392.742188 C 443.597656 406.519531 436.824219 402.21875 417.535156 426.339844 Z M 432.710938 433.453125 C 432.394531 434.308594 430.890625 442.375 428.898438 453.898438 C 428.625 455.472656 427.683594 458.46875 426.773438 460.671875 C 424.683594 465.726562 424.304688 467.339844 421.863281 481.394531 C 419.71875 493.761719 419.214844 495.644531 416.785156 500.429688 C 414.914062 504.109375 403.894531 515.386719 397.851562 519.804688 C 388.308594 526.777344 375.550781 535.628906 373.628906 536.613281 C 369.707031 538.613281 362.996094 547.335938 360.296875 550.800781 L 357.890625 548.089844 C 352.882812 542.449219 346.777344 530.867188 343.667969 521.097656 C 332.410156 485.769531 330.511719 484.910156 315.90625 469.480469 C 317.613281 459.460938 318.242188 450.53125 318.5 438.9375 C 318.628906 433.171875 318.746094 428.410156 318.769531 428.320312 C 318.828125 428.0625 332.050781 441.984375 331.808594 441.984375 C 333.207031 443.761719 338.949219 447.890625 342.503906 449.675781 C 347.039062 451.949219 354.480469 454.164062 361.710938 455.394531 C 371.027344 456.976562 392.492188 457.164062 397.007812 455.695312 C 398.527344 455.203125 399.820312 454.851562 399.875 454.914062 C 400.082031 455.140625 396.371094 464.003906 394.035156 468.863281 C 391.257812 474.621094 385.800781 483.890625 384.121094 485.691406 C 382.3125 487.628906 373.960938 493.695312 368.878906 496.761719 C 365.492188 498.808594 357.96875 502.179688 356.792969 502.179688 C 356.699219 502.179688 356.628906 502.460938 356.628906 502.800781 C 356.628906 504.175781 362.558594 503.015625 366.847656 500.792969 C 371.371094 498.460938 379.894531 492.878906 384.863281 488.996094 C 389.996094 484.988281 396.167969 476.824219 401.589844 466.886719 C 408.980469 453.335938 409.65625 452.484375 420.21875 443.398438 C 432.980469 432.414062 433.144531 432.285156 432.710938 433.453125 Z M 396.910156 617.882812 C 391.113281 617.882812 391.121094 608.894531 396.910156 608.894531 C 402.703125 608.894531 402.695312 617.882812 396.910156 617.882812 Z M 379.789062 577.292969 C 384.691406 577.292969 384.683594 584.898438 379.789062 584.898438 C 374.886719 584.898438 374.890625 577.292969 379.789062 577.292969 Z M 374.671875 638.125 C 373.125 638.5 371.910156 639.695312 371.511719 641.230469 L 368.820312 651.5625 L 366.304688 641.1875 C 365.929688 639.644531 364.738281 638.433594 363.203125 638.03125 L 352.871094 635.335938 L 363.246094 632.820312 C 364.789062 632.445312 366.003906 631.253906 366.402344 629.71875 L 369.09375 619.390625 L 371.609375 629.765625 C 371.984375 631.304688 373.175781 632.519531 374.714844 632.917969 L 385.046875 635.609375 Z M 301.976562 507.09375 C 297.070312 507.09375 297.078125 499.488281 301.976562 499.488281 C 306.878906 499.488281 306.867188 507.09375 301.976562 507.09375 Z M 286.148438 363.261719 C 282.066406 357.148438 277.574219 354.371094 274.625 347.449219 C 272.96875 343.5625 272.816406 342.707031 272.789062 337.003906 C 272.761719 331.414062 272.929688 330.371094 274.453125 326.5625 C 275.785156 323.226562 276.984375 321.445312 280.066406 318.203125 C 284.589844 313.4375 284.789062 313.515625 284.859375 320.0625 C 284.925781 326.394531 286.609375 340.367188 287.839844 365.804688 Z M 240.261719 362.320312 L 248.667969 383.878906 L 232.992188 366.863281 L 218.523438 384.925781 L 225.417969 362.835938 L 202.542969 359.339844 L 225.121094 354.269531 L 216.714844 332.710938 L 232.394531 349.730469 L 246.859375 331.667969 L 239.964844 353.757812 L 262.839844 357.25 Z M 248.667969 477.828125 C 242.875 477.828125 242.886719 468.839844 248.667969 468.839844 C 254.464844 468.839844 254.457031 477.828125 248.667969 477.828125 Z M 242.835938 452.152344 C 237.039062 452.152344 237.046875 443.164062 242.835938 443.164062 C 248.628906 443.164062 248.621094 452.152344 242.835938 452.152344 Z M 356.054688 194.570312 C 361.851562 194.570312 361.84375 203.558594 356.054688 203.558594 C 350.261719 203.558594 350.269531 194.570312 356.054688 194.570312 Z M 443.597656 199.234375 C 449.390625 199.234375 449.382812 208.226562 443.597656 208.226562 C 437.800781 208.226562 437.808594 199.234375 443.597656 199.234375 Z M 323.761719 634.695312 C 318.859375 634.695312 318.867188 627.089844 323.761719 627.089844 C 328.664062 627.089844 328.660156 634.695312 323.761719 634.695312 Z M 558.339844 345.417969 C 556.554688 342.664062 552.824219 335.933594 550.089844 330.511719 C 538.570312 307.714844 535.253906 309.472656 525.277344 289.570312 C 520.96875 280.984375 518.203125 273.589844 510.804688 250.890625 C 502.394531 225.085938 499.894531 219.316406 492.855469 209.496094 C 482.382812 194.882812 467.542969 183.46875 450.429688 176.867188 C 437.609375 171.917969 421.722656 171.488281 411.578125 175.808594 L 408.976562 176.914062 L 406.210938 174.335938 C 402.960938 171.296875 396.496094 168.140625 391.191406 166.992188 C 387.464844 166.1875 373.195312 165.484375 369.898438 165.949219 C 369.96875 165.949219 366.496094 166.394531 363.121094 166.808594 C 360.335938 167.148438 353.464844 168.570312 347.929688 169.953125 C 323.984375 175.929688 306.328125 183.289062 285.183594 196.109375 C 265.601562 207.984375 263.222656 208.125 238.90625 232.539062 C 221.019531 250.492188 217.769531 253.09375 209.167969 256.339844 C 206.515625 257.34375 200.757812 258.832031 196.460938 259.628906 C 174.042969 263.777344 167.433594 266.804688 154.390625 278.867188 C 147.191406 285.523438 136.257812 291.3125 128.238281 292.714844 C 124.457031 293.378906 116.753906 293.195312 114.742188 292.394531 C 113.277344 291.8125 113.558594 293.644531 115.082031 294.621094 C 117.402344 296.101562 125.074219 296.828125 131.0625 296.121094 C 140.664062 294.992188 144.785156 292.847656 163.199219 279.4375 C 168.394531 275.652344 176.324219 271.644531 181.269531 270.320312 C 183.78125 269.648438 187.988281 269.367188 197.535156 269.242188 C 211.769531 269.046875 215.417969 268.765625 223.625 267.199219 C 226.679688 266.621094 229.292969 266.214844 229.378906 266.304688 C 229.648438 266.589844 223.667969 276.074219 221.128906 279.40625 C 217.644531 283.972656 196.390625 304.886719 196.460938 304.816406 C 178.28125 332.261719 173.871094 339.8125 163.59375 345.136719 C 156.792969 348.660156 150.320312 349.894531 140.042969 349.632812 C 132.929688 349.449219 132.117188 349.527344 131.953125 350.390625 C 131.722656 351.570312 136.710938 353.9375 144.394531 356.285156 C 155.011719 359.535156 169.15625 357.980469 178.84375 352.507812 C 188.121094 347.261719 194.339844 341.015625 205.242188 325.992188 C 210.117188 319.273438 213.054688 315.832031 213.910156 315.832031 C 215.445312 315.832031 209.179688 328.648438 203.25 337.625 C 194.527344 350.84375 189.25 361.707031 185.371094 374.445312 C 183.566406 380.359375 183.527344 380.710938 183.558594 390.9375 C 183.585938 401.214844 183.617188 401.472656 185.449219 407.03125 C 187.949219 414.605469 189.886719 416.628906 191.972656 423.234375 C 193.691406 428.660156 197.910156 436.46875 201.515625 440.910156 C 202.769531 442.453125 206.515625 446.410156 209.789062 449.652344 C 218.320312 458.078125 218.320312 458.078125 218.828125 481.003906 C 219.15625 495.570312 219.402344 499.179688 220.308594 502.519531 C 223.027344 512.597656 231.140625 520.265625 243.109375 524.085938 C 247.785156 525.578125 252.089844 526.300781 259.203125 526.78125 C 265.566406 527.214844 266.71875 527.671875 274.171875 532.6875 C 280.175781 536.71875 284.675781 538.996094 297.269531 544.359375 C 311.5 550.417969 324.882812 557.066406 327.59375 559.421875 C 336.011719 566.734375 338.933594 582.261719 333.359375 593.320312 C 328.578125 602.808594 321.613281 609.753906 312.121094 614.496094 C 308.28125 616.414062 297.804688 620.742188 294.21875 621.878906 C 285.65625 624.601562 279.253906 627.914062 268.523438 635.167969 C 248.210938 648.90625 246.46875 645.429688 232.378906 649.648438 C 226.109375 651.523438 210.878906 657.910156 205.722656 660.824219 C 202.054688 662.898438 196.660156 664.8125 194.488281 664.8125 C 191.136719 664.8125 193.019531 665.859375 199.171875 667.421875 C 204.621094 668.808594 206.625 669.046875 212.894531 669.046875 C 219.503906 669.046875 221.484375 668.777344 232.660156 666.363281 C 239.5 664.886719 248.769531 663.296875 253.277344 662.828125 C 265.421875 661.558594 282.835938 661.148438 290.832031 661.941406 C 303.808594 663.226562 326.691406 668.289062 346.121094 674.171875 C 368.765625 681.027344 385.125 682.171875 403.21875 678.144531 C 405.96875 677.53125 408.691406 676.792969 411.363281 675.886719 C 442.015625 665.503906 452.78125 635.574219 468.804688 610.496094 C 477.660156 596.644531 489.152344 583.890625 500.417969 572.105469 C 513.105469 558.824219 529.902344 550.382812 542.980469 537.53125 C 552.316406 528.355469 559.433594 517.222656 566.472656 506.191406 C 571.988281 497.542969 571.058594 488.078125 573.746094 478.402344 C 581.011719 452.230469 576.695312 424.734375 576.078125 406.179688 C 575.277344 382.179688 569.621094 362.804688 558.339844 345.417969 " fill-opacity="1" fill-rule="nonzero"/><path fill="#e1a344" d="M 258.753906 445.949219 L 256.234375 435.574219 C 255.859375 434.027344 254.664062 432.816406 253.128906 432.414062 L 242.796875 429.722656 L 253.171875 427.210938 C 254.71875 426.835938 255.929688 425.640625 256.332031 424.105469 L 259.023438 413.773438 L 261.535156 424.148438 C 261.910156 425.695312 263.105469 426.90625 264.640625 427.308594 L 274.972656 430 L 264.597656 432.511719 C 263.054688 432.886719 261.84375 434.082031 261.441406 435.617188 L 258.753906 445.949219 " fill-opacity="1" fill-rule="nonzero"/><path fill="#e1a344" d="M 272.675781 240.230469 L 282.230469 235.441406 C 285.703125 233.695312 287.3125 229.625 285.972656 225.972656 L 282.289062 215.941406 L 289.800781 223.542969 C 292.53125 226.308594 296.90625 226.582031 299.957031 224.179688 L 308.367188 217.574219 L 303.453125 227.066406 C 301.667969 230.523438 302.757812 234.765625 305.984375 236.925781 L 314.867188 242.875 L 304.316406 241.140625 C 300.484375 240.507812 296.785156 242.859375 295.726562 246.597656 L 292.808594 256.882812 L 291.199219 246.316406 C 290.617188 242.472656 287.242188 239.683594 283.355469 239.828125 L 272.675781 240.230469 " fill-opacity="1" fill-rule="nonzero"/><path fill="#e1a344" d="M 332.707031 213.242188 C 326.925781 213.242188 326.914062 222.234375 332.707031 222.234375 C 338.496094 222.234375 338.503906 213.242188 332.707031 213.242188 " fill-opacity="1" fill-rule="nonzero"/><path fill="#e1a344" d="M 515.964844 338.683594 C 512.40625 338.683594 512.398438 344.214844 515.964844 344.214844 C 519.527344 344.214844 519.53125 338.683594 515.964844 338.683594 " fill-opacity="1" fill-rule="nonzero"/><path fill="#e1a344" d="M 413.25 593.117188 C 409.6875 593.117188 409.683594 598.644531 413.25 598.644531 C 416.8125 598.644531 416.816406 593.117188 413.25 593.117188 " fill-opacity="1" fill-rule="nonzero"/><path fill="#e1a344" d="M 235.828125 418.046875 C 232.273438 418.046875 232.265625 423.582031 235.828125 423.582031 C 239.390625 423.582031 239.394531 418.046875 235.828125 418.046875 " fill-opacity="1" fill-rule="nonzero"/><path fill="#e1a344" d="M 277.851562 259.324219 C 274.289062 259.324219 274.285156 264.851562 277.851562 264.851562 C 281.414062 264.851562 281.417969 259.324219 277.851562 259.324219 " fill-opacity="1" fill-rule="nonzero"/><path fill="#e1a344" d="M 515.964844 532.421875 L 503.839844 515.777344 L 489.203125 530.269531 L 497.554688 511.441406 L 477.683594 506.011719 L 498.167969 503.835938 L 492.933594 483.917969 L 505.0625 500.566406 L 519.695312 486.070312 L 511.34375 504.902344 L 531.214844 510.324219 L 510.730469 512.503906 L 515.964844 532.421875 " fill-opacity="1" fill-rule="nonzero"/><path fill="#e1a344" d="M 476.28125 265.546875 C 472.71875 265.546875 472.710938 271.078125 476.28125 271.078125 C 479.84375 271.078125 479.847656 265.546875 476.28125 265.546875 " fill-opacity="1" fill-rule="nonzero"/><path fill="#e1a344" d="M 438.929688 564.84375 C 434.035156 564.84375 434.023438 572.453125 438.929688 572.453125 C 443.828125 572.453125 443.832031 564.84375 438.929688 564.84375 " fill-opacity="1" fill-rule="nonzero"/><path fill="#e1a344" d="M 407.800781 546.171875 C 402.90625 546.171875 402.898438 553.78125 407.800781 553.78125 C 412.699219 553.78125 412.703125 546.171875 407.800781 546.171875 " fill-opacity="1" fill-rule="nonzero"/><path fill="#e1a344" d="M 289.523438 468.363281 C 284.625 468.363281 284.621094 475.96875 289.523438 475.96875 C 294.417969 475.96875 294.429688 468.363281 289.523438 468.363281 " fill-opacity="1" fill-rule="nonzero"/><path fill="#e1a344" d="M 498.066406 309.636719 C 493.171875 309.636719 493.164062 317.246094 498.066406 317.246094 C 502.964844 317.246094 502.972656 309.636719 498.066406 309.636719 " fill-opacity="1" fill-rule="nonzero"/><path fill="#e1a344" d="M 557.210938 374.992188 C 552.3125 374.992188 552.304688 382.601562 557.210938 382.601562 C 562.101562 382.601562 562.113281 374.992188 557.210938 374.992188 " fill-opacity="1" fill-rule="nonzero"/><path stroke-linecap="butt" transform="matrix(0.90551, 0, 0, 0.90551, 27.057577, -68.461793)" fill="none" stroke-linejoin="miter" d="M 454.782165 585.164373 C 454.782165 646.98212 451.391463 696.928098 444.605747 734.997995 L 24.689396 734.997995 L 19.978651 710.309721 C 34.930522 700.50861 56.853606 689.956886 85.75653 678.64592 L 85.75653 274.941091 L 26.199251 266.460024 L 26.949864 227.070083 L 263.293821 227.070083 L 267.81907 251.758357 C 248.846672 263.065008 227.234187 273.621047 202.985928 283.422158 L 202.985928 670.164853 L 357.340485 657.727968 L 387.498745 551.240105 L 454.782165 557.460704 Z M 454.782165 585.164373 " stroke="#0c0a27" stroke-width="10.61478" stroke-opacity="1" stroke-miterlimit="4"/><g fill="#e1a344" fill-opacity="1"><g transform="translate(27.057577, 597.087753)"><g><path d="M 411.734375 -135.609375 C 411.734375 -79.691406 408.703125 -34.488281 402.640625 0 L 22.375 0 L 18.171875 -22.375 C 31.691406 -31.226562 51.5 -40.78125 77.59375 -51.03125 L 77.59375 -416.625 L 23.765625 -424.3125 L 24.46875 -459.96875 L 238.375 -459.96875 L 242.5625 -437.59375 C 225.320312 -427.34375 205.75 -417.789062 183.84375 -408.9375 L 183.84375 -58.71875 L 323.65625 -69.90625 L 350.90625 -166.375 L 411.734375 -160.78125 Z M 411.734375 -135.609375 "/></g></g></g><path stroke-linecap="butt" transform="matrix(0.854955, 0, 0, 0.854955, 54.000384, 165.829435)" fill="none" stroke-linejoin="miter" d="M 528.805438 656.835516 L 528.09725 693.999368 L 298.543985 693.999368 L 294.276584 670.706853 C 307.786974 662.409637 328.890961 652.216306 357.574839 640.122291 L 326.994846 561.531755 L 153.625978 561.531755 L 121.620473 647.414338 L 188.65613 656.835516 L 187.943374 693.999368 L -10.134384 693.999368 L -14.579974 670.706853 C -0.00044953 661.459295 20.153196 651.741135 45.876393 641.547804 L 206.794868 246.095907 L 198.081877 223.516148 L 293.563828 197.377176 L 477.06663 649.548038 Z M 305.831463 506.055545 L 240.399507 334.290379 L 174.789362 506.055545 Z M 305.831463 506.055545 " stroke="#e1a344" stroke-width="10.924665" stroke-opacity="1" stroke-miterlimit="4"/><g fill="#0c0a27" fill-opacity="1"><g transform="translate(54.000384, 759.168509)"><g><path d="M 452.0625 -31.75 L 451.4375 0 L 255.296875 0 L 251.5625 -19.921875 C 263.1875 -26.984375 281.242188 -35.703125 305.734375 -46.078125 L 279.578125 -113.328125 L 131.390625 -113.328125 L 103.984375 -39.84375 L 161.265625 -31.75 L 160.65625 0 L -8.71875 0 L -12.453125 -19.921875 C 0.00390625 -27.804688 17.234375 -36.109375 39.234375 -44.828125 L 176.84375 -382.9375 L 169.359375 -402.25 L 250.9375 -424.65625 L 407.84375 -37.984375 Z M 261.515625 -160.65625 L 205.484375 -307.59375 L 149.4375 -160.65625 Z M 261.515625 -160.65625 "/></g></g></g></svg>