<svg xmlns="http://www.w3.org/2000/svg" xmlns:xlink="http://www.w3.org/1999/xlink" width="1024" zoomAndPan="magnify" viewBox="0 0 768 767.999994" height="1024" preserveAspectRatio="xMidYMid meet" version="1.0"><defs><g/><linearGradient x1="0" gradientTransform="matrix(0.75, 0, 0, 0.75, 0.000003, 0.00002)" y1="0" x2="1023.999957" gradientUnits="userSpaceOnUse" y2="0" id="7c242a6a19"><stop stop-opacity="1" stop-color="rgb(65.098572%, 65.098572%, 65.098572%)" offset="0"/><stop stop-opacity="1" stop-color="rgb(65.234375%, 65.234375%, 65.234375%)" offset="0.0078125"/><stop stop-opacity="1" stop-color="rgb(65.507507%, 65.507507%, 65.507507%)" offset="0.015625"/><stop stop-opacity="1" stop-color="rgb(65.78064%, 65.78064%, 65.78064%)" offset="0.0234375"/><stop stop-opacity="1" stop-color="rgb(66.052246%, 66.052246%, 66.052246%)" offset="0.03125"/><stop stop-opacity="1" stop-color="rgb(66.325378%, 66.325378%, 66.325378%)" offset="0.0390625"/><stop stop-opacity="1" stop-color="rgb(66.598511%, 66.598511%, 66.598511%)" offset="0.046875"/><stop stop-opacity="1" stop-color="rgb(66.871643%, 66.871643%, 66.871643%)" offset="0.0546875"/><stop stop-opacity="1" stop-color="rgb(67.14325%, 67.14325%, 67.14325%)" offset="0.0625"/><stop stop-opacity="1" stop-color="rgb(67.416382%, 67.416382%, 67.416382%)" offset="0.0703125"/><stop stop-opacity="1" stop-color="rgb(67.689514%, 67.689514%, 67.689514%)" offset="0.078125"/><stop stop-opacity="1" stop-color="rgb(67.961121%, 67.961121%, 67.961121%)" offset="0.0859375"/><stop stop-opacity="1" stop-color="rgb(68.234253%, 68.234253%, 68.234253%)" offset="0.09375"/><stop stop-opacity="1" stop-color="rgb(68.507385%, 68.507385%, 68.507385%)" offset="0.101562"/><stop stop-opacity="1" stop-color="rgb(68.778992%, 68.778992%, 68.778992%)" offset="0.109375"/><stop stop-opacity="1" stop-color="rgb(69.052124%, 69.052124%, 69.052124%)" offset="0.117188"/><stop stop-opacity="1" stop-color="rgb(69.325256%, 69.325256%, 69.325256%)" offset="0.125"/><stop stop-opacity="1" stop-color="rgb(69.596863%, 69.596863%, 69.596863%)" offset="0.132812"/><stop stop-opacity="1" stop-color="rgb(69.869995%, 69.869995%, 69.869995%)" offset="0.140625"/><stop stop-opacity="1" stop-color="rgb(70.143127%, 70.143127%, 70.143127%)" offset="0.148438"/><stop stop-opacity="1" stop-color="rgb(70.41626%, 70.41626%, 70.41626%)" offset="0.15625"/><stop stop-opacity="1" stop-color="rgb(70.687866%, 70.687866%, 70.687866%)" offset="0.164062"/><stop stop-opacity="1" stop-color="rgb(70.960999%, 70.960999%, 70.960999%)" offset="0.171875"/><stop stop-opacity="1" stop-color="rgb(71.234131%, 71.234131%, 71.234131%)" offset="0.179688"/><stop stop-opacity="1" stop-color="rgb(71.505737%, 71.505737%, 71.505737%)" offset="0.1875"/><stop stop-opacity="1" stop-color="rgb(71.77887%, 71.77887%, 71.77887%)" offset="0.195312"/><stop stop-opacity="1" stop-color="rgb(72.052002%, 72.052002%, 72.052002%)" offset="0.203125"/><stop stop-opacity="1" stop-color="rgb(72.323608%, 72.323608%, 72.323608%)" offset="0.210938"/><stop stop-opacity="1" stop-color="rgb(72.596741%, 72.596741%, 72.596741%)" offset="0.21875"/><stop stop-opacity="1" stop-color="rgb(72.869873%, 72.869873%, 72.869873%)" offset="0.226562"/><stop stop-opacity="1" stop-color="rgb(73.141479%, 73.141479%, 73.141479%)" offset="0.234375"/><stop stop-opacity="1" stop-color="rgb(73.414612%, 73.414612%, 73.414612%)" offset="0.242188"/><stop stop-opacity="1" stop-color="rgb(73.687744%, 73.687744%, 73.687744%)" offset="0.25"/><stop stop-opacity="1" stop-color="rgb(73.959351%, 73.959351%, 73.959351%)" offset="0.257812"/><stop stop-opacity="1" stop-color="rgb(74.232483%, 74.232483%, 74.232483%)" offset="0.265625"/><stop stop-opacity="1" stop-color="rgb(74.505615%, 74.505615%, 74.505615%)" offset="0.273438"/><stop stop-opacity="1" stop-color="rgb(74.778748%, 74.778748%, 74.778748%)" offset="0.28125"/><stop stop-opacity="1" stop-color="rgb(75.050354%, 75.050354%, 75.050354%)" offset="0.289062"/><stop stop-opacity="1" stop-color="rgb(75.323486%, 75.323486%, 75.323486%)" offset="0.296875"/><stop stop-opacity="1" stop-color="rgb(75.596619%, 75.596619%, 75.596619%)" offset="0.304688"/><stop stop-opacity="1" stop-color="rgb(75.868225%, 75.868225%, 75.868225%)" offset="0.3125"/><stop stop-opacity="1" stop-color="rgb(76.141357%, 76.141357%, 76.141357%)" offset="0.320312"/><stop stop-opacity="1" stop-color="rgb(76.41449%, 76.41449%, 76.41449%)" offset="0.328125"/><stop stop-opacity="1" stop-color="rgb(76.686096%, 76.686096%, 76.686096%)" offset="0.335938"/><stop stop-opacity="1" stop-color="rgb(76.959229%, 76.959229%, 76.959229%)" offset="0.34375"/><stop stop-opacity="1" stop-color="rgb(77.232361%, 77.232361%, 77.232361%)" offset="0.351562"/><stop stop-opacity="1" stop-color="rgb(77.503967%, 77.503967%, 77.503967%)" offset="0.359375"/><stop stop-opacity="1" stop-color="rgb(77.7771%, 77.7771%, 77.7771%)" offset="0.367188"/><stop stop-opacity="1" stop-color="rgb(78.050232%, 78.050232%, 78.050232%)" offset="0.375"/><stop stop-opacity="1" stop-color="rgb(78.321838%, 78.321838%, 78.321838%)" offset="0.382812"/><stop stop-opacity="1" stop-color="rgb(78.594971%, 78.594971%, 78.594971%)" offset="0.390625"/><stop stop-opacity="1" stop-color="rgb(78.868103%, 78.868103%, 78.868103%)" offset="0.398438"/><stop stop-opacity="1" stop-color="rgb(79.141235%, 79.141235%, 79.141235%)" offset="0.40625"/><stop stop-opacity="1" stop-color="rgb(79.412842%, 79.412842%, 79.412842%)" offset="0.414062"/><stop stop-opacity="1" stop-color="rgb(79.685974%, 79.685974%, 79.685974%)" offset="0.421875"/><stop stop-opacity="1" stop-color="rgb(79.959106%, 79.959106%, 79.959106%)" offset="0.429688"/><stop stop-opacity="1" stop-color="rgb(80.230713%, 80.230713%, 80.230713%)" offset="0.4375"/><stop stop-opacity="1" stop-color="rgb(80.503845%, 80.503845%, 80.503845%)" offset="0.445312"/><stop stop-opacity="1" stop-color="rgb(80.776978%, 80.776978%, 80.776978%)" offset="0.453125"/><stop stop-opacity="1" stop-color="rgb(81.048584%, 81.048584%, 81.048584%)" offset="0.460938"/><stop stop-opacity="1" stop-color="rgb(81.321716%, 81.321716%, 81.321716%)" offset="0.46875"/><stop stop-opacity="1" stop-color="rgb(81.594849%, 81.594849%, 81.594849%)" offset="0.476562"/><stop stop-opacity="1" stop-color="rgb(81.866455%, 81.866455%, 81.866455%)" offset="0.484375"/><stop stop-opacity="1" stop-color="rgb(82.139587%, 82.139587%, 82.139587%)" offset="0.492188"/><stop stop-opacity="1" stop-color="rgb(82.41272%, 82.41272%, 82.41272%)" offset="0.5"/><stop stop-opacity="1" stop-color="rgb(82.684326%, 82.684326%, 82.684326%)" offset="0.507812"/><stop stop-opacity="1" stop-color="rgb(82.957458%, 82.957458%, 82.957458%)" offset="0.515625"/><stop stop-opacity="1" stop-color="rgb(83.230591%, 83.230591%, 83.230591%)" offset="0.523438"/><stop stop-opacity="1" stop-color="rgb(83.503723%, 83.503723%, 83.503723%)" offset="0.53125"/><stop stop-opacity="1" stop-color="rgb(83.77533%, 83.77533%, 83.77533%)" offset="0.539062"/><stop stop-opacity="1" stop-color="rgb(84.048462%, 84.048462%, 84.048462%)" offset="0.546875"/><stop stop-opacity="1" stop-color="rgb(84.321594%, 84.321594%, 84.321594%)" offset="0.554688"/><stop stop-opacity="1" stop-color="rgb(84.593201%, 84.593201%, 84.593201%)" offset="0.5625"/><stop stop-opacity="1" stop-color="rgb(84.866333%, 84.866333%, 84.866333%)" offset="0.570312"/><stop stop-opacity="1" stop-color="rgb(85.139465%, 85.139465%, 85.139465%)" offset="0.578125"/><stop stop-opacity="1" stop-color="rgb(85.411072%, 85.411072%, 85.411072%)" offset="0.585938"/><stop stop-opacity="1" stop-color="rgb(85.684204%, 85.684204%, 85.684204%)" offset="0.59375"/><stop stop-opacity="1" stop-color="rgb(85.957336%, 85.957336%, 85.957336%)" offset="0.601562"/><stop stop-opacity="1" stop-color="rgb(86.228943%, 86.228943%, 86.228943%)" offset="0.609375"/><stop stop-opacity="1" stop-color="rgb(86.502075%, 86.502075%, 86.502075%)" offset="0.617188"/><stop stop-opacity="1" stop-color="rgb(86.775208%, 86.775208%, 86.775208%)" offset="0.625"/><stop stop-opacity="1" stop-color="rgb(87.046814%, 87.046814%, 87.046814%)" offset="0.632812"/><stop stop-opacity="1" stop-color="rgb(87.319946%, 87.319946%, 87.319946%)" offset="0.640625"/><stop stop-opacity="1" stop-color="rgb(87.593079%, 87.593079%, 87.593079%)" offset="0.648438"/><stop stop-opacity="1" stop-color="rgb(87.866211%, 87.866211%, 87.866211%)" offset="0.65625"/><stop stop-opacity="1" stop-color="rgb(88.137817%, 88.137817%, 88.137817%)" offset="0.664062"/><stop stop-opacity="1" stop-color="rgb(88.41095%, 88.41095%, 88.41095%)" offset="0.671875"/><stop stop-opacity="1" stop-color="rgb(88.684082%, 88.684082%, 88.684082%)" offset="0.679688"/><stop stop-opacity="1" stop-color="rgb(88.955688%, 88.955688%, 88.955688%)" offset="0.6875"/><stop stop-opacity="1" stop-color="rgb(89.228821%, 89.228821%, 89.228821%)" offset="0.695312"/><stop stop-opacity="1" stop-color="rgb(89.501953%, 89.501953%, 89.501953%)" offset="0.703125"/><stop stop-opacity="1" stop-color="rgb(89.77356%, 89.77356%, 89.77356%)" offset="0.710938"/><stop stop-opacity="1" stop-color="rgb(90.046692%, 90.046692%, 90.046692%)" offset="0.71875"/><stop stop-opacity="1" stop-color="rgb(90.319824%, 90.319824%, 90.319824%)" offset="0.726562"/><stop stop-opacity="1" stop-color="rgb(90.591431%, 90.591431%, 90.591431%)" offset="0.734375"/><stop stop-opacity="1" stop-color="rgb(90.864563%, 90.864563%, 90.864563%)" offset="0.742188"/><stop stop-opacity="1" stop-color="rgb(91.137695%, 91.137695%, 91.137695%)" offset="0.75"/><stop stop-opacity="1" stop-color="rgb(91.409302%, 91.409302%, 91.409302%)" offset="0.757812"/><stop stop-opacity="1" stop-color="rgb(91.682434%, 91.682434%, 91.682434%)" offset="0.765625"/><stop stop-opacity="1" stop-color="rgb(91.955566%, 91.955566%, 91.955566%)" offset="0.773438"/><stop stop-opacity="1" stop-color="rgb(92.228699%, 92.228699%, 92.228699%)" offset="0.78125"/><stop stop-opacity="1" stop-color="rgb(92.500305%, 92.500305%, 92.500305%)" offset="0.789062"/><stop stop-opacity="1" stop-color="rgb(92.773438%, 92.773438%, 92.773438%)" offset="0.796875"/><stop stop-opacity="1" stop-color="rgb(93.04657%, 93.04657%, 93.04657%)" offset="0.804688"/><stop stop-opacity="1" stop-color="rgb(93.318176%, 93.318176%, 93.318176%)" offset="0.8125"/><stop stop-opacity="1" stop-color="rgb(93.591309%, 93.591309%, 93.591309%)" offset="0.820312"/><stop stop-opacity="1" stop-color="rgb(93.864441%, 93.864441%, 93.864441%)" offset="0.828125"/><stop stop-opacity="1" stop-color="rgb(94.136047%, 94.136047%, 94.136047%)" offset="0.835938"/><stop stop-opacity="1" stop-color="rgb(94.40918%, 94.40918%, 94.40918%)" offset="0.84375"/><stop stop-opacity="1" stop-color="rgb(94.682312%, 94.682312%, 94.682312%)" offset="0.851562"/><stop stop-opacity="1" stop-color="rgb(94.953918%, 94.953918%, 94.953918%)" offset="0.859375"/><stop stop-opacity="1" stop-color="rgb(95.227051%, 95.227051%, 95.227051%)" offset="0.867188"/><stop stop-opacity="1" stop-color="rgb(95.500183%, 95.500183%, 95.500183%)" offset="0.875"/><stop stop-opacity="1" stop-color="rgb(95.77179%, 95.77179%, 95.77179%)" offset="0.882812"/><stop stop-opacity="1" stop-color="rgb(96.044922%, 96.044922%, 96.044922%)" offset="0.890625"/><stop stop-opacity="1" stop-color="rgb(96.318054%, 96.318054%, 96.318054%)" offset="0.898438"/><stop stop-opacity="1" stop-color="rgb(96.591187%, 96.591187%, 96.591187%)" offset="0.90625"/><stop stop-opacity="1" stop-color="rgb(96.862793%, 96.862793%, 96.862793%)" offset="0.914062"/><stop stop-opacity="1" stop-color="rgb(97.135925%, 97.135925%, 97.135925%)" offset="0.921875"/><stop stop-opacity="1" stop-color="rgb(97.409058%, 97.409058%, 97.409058%)" offset="0.929688"/><stop stop-opacity="1" stop-color="rgb(97.680664%, 97.680664%, 97.680664%)" offset="0.9375"/><stop stop-opacity="1" stop-color="rgb(97.953796%, 97.953796%, 97.953796%)" offset="0.945312"/><stop stop-opacity="1" stop-color="rgb(98.226929%, 98.226929%, 98.226929%)" offset="0.953125"/><stop stop-opacity="1" stop-color="rgb(98.498535%, 98.498535%, 98.498535%)" offset="0.960938"/><stop stop-opacity="1" stop-color="rgb(98.771667%, 98.771667%, 98.771667%)" offset="0.96875"/><stop stop-opacity="1" stop-color="rgb(99.0448%, 99.0448%, 99.0448%)" offset="0.976562"/><stop stop-opacity="1" stop-color="rgb(99.316406%, 99.316406%, 99.316406%)" offset="0.984375"/><stop stop-opacity="1" stop-color="rgb(99.589539%, 99.589539%, 99.589539%)" offset="0.992188"/><stop stop-opacity="1" stop-color="rgb(99.862671%, 99.862671%, 99.862671%)" offset="1"/></linearGradient><clipPath id="952484d320"><path d="M 277 113.3125 L 768 113.3125 L 768 611 L 277 611 Z M 277 113.3125 " clip-rule="nonzero"/></clipPath><clipPath id="cfc613e86f"><path d="M 590 555 L 702 555 L 702 654.8125 L 590 654.8125 Z M 590 555 " clip-rule="nonzero"/></clipPath></defs><rect x="-76.8" fill="url(#7c242a6a19)" width="921.6" y="-76.799999" height="921.599993"/><path stroke-linecap="butt" transform="matrix(0.984421, 0, 0, 0.984421, 182.165281, -126.514822)" fill="none" stroke-linejoin="miter" d="M 454.782874 585.166037 C 454.782874 646.98455 451.390176 696.930608 444.604782 735.000242 L 24.688074 735.000242 L 19.977979 710.310929 C 34.929655 700.509804 56.857192 689.954746 85.752655 678.645756 L 85.752655 274.942569 L 26.195939 266.458842 L 26.949872 227.067842 L 263.295871 227.067842 L 267.819467 251.757154 C 248.844171 263.066145 227.234079 273.621203 202.985223 283.422328 L 202.985223 670.165997 L 357.343024 657.726107 L 387.496364 551.239065 L 454.782874 557.460994 Z M 454.782874 585.166037 " stroke="#0c0a27" stroke-width="10.61478" stroke-opacity="1" stroke-miterlimit="4"/><g fill="#e1a344" fill-opacity="1"><g transform="translate(182.165281, 597.034918)"><g><path d="M 447.609375 -147.4375 C 447.609375 -86.632812 444.316406 -37.488281 437.734375 0 L 24.3125 0 L 19.765625 -24.3125 C 34.453125 -33.9375 55.984375 -44.328125 84.359375 -55.484375 L 84.359375 -452.9375 L 25.84375 -461.296875 L 26.59375 -500.046875 L 259.140625 -500.046875 L 263.703125 -475.734375 C 244.953125 -464.585938 223.675781 -454.203125 199.875 -444.578125 L 199.875 -63.84375 L 351.859375 -76 L 381.5 -180.875 L 447.609375 -174.796875 Z M 447.609375 -147.4375 "/></g></g></g><g clip-path="url(#952484d320)"><path fill="#e1a344" d="M 390.386719 117.0625 C 342.316406 147.253906 305.960938 194.792969 288.496094 252.386719 C 235.621094 426.757812 372.636719 614.738281 553.660156 610.492188 C 568.738281 610.140625 569.867188 610.0625 579.917969 608.671875 C 599.6875 605.949219 624.144531 599.4375 638.085938 593.1875 C 640.175781 592.25 642.414062 591.488281 643.082031 591.488281 C 644.078125 591.488281 703.046875 569.367188 745.496094 505.65625 C 759.746094 484.277344 771.191406 458.898438 778.355469 432.808594 C 781.171875 422.535156 785.542969 400.773438 784.914062 400.113281 C 784.695312 399.886719 780.046875 406.699219 774.847656 412.734375 C 772.703125 415.21875 769.417969 419.371094 767.488281 422.023438 C 738.246094 462.253906 700.328125 492.289062 655.878906 510.429688 C 643.058594 515.664062 620.34375 522.585938 610.246094 524.347656 C 608.648438 524.625 605.84375 525.117188 604.089844 525.433594 C 586.332031 528.628906 586.035156 527.761719 581.332031 528.613281 C 580.503906 528.757812 554.839844 529.945312 538.972656 528.597656 C 526.324219 527.523438 505.996094 524.175781 497.464844 521.757812 C 495.921875 521.324219 492.722656 520.410156 490.402344 519.753906 C 403.257812 494.933594 333.367188 420.507812 322.300781 321.453125 C 321.074219 310.496094 320.925781 284.980469 322.019531 274.410156 C 323.660156 258.546875 327.898438 238.21875 332.578125 223.703125 C 341.546875 195.917969 359.476562 161.570312 375.085938 142.273438 C 377.601562 139.167969 381.671875 134.136719 384.136719 131.089844 C 388.753906 125.390625 396.945312 113.828125 396.601562 113.511719 C 396.371094 113.304688 390.457031 117.0625 390.386719 117.0625 " fill-opacity="1" fill-rule="nonzero"/></g><path fill="#0c0a27" d="M 437.359375 585.339844 C 435.28125 586.5 430.710938 588.574219 426.644531 590.160156 C 420.660156 592.484375 411.820312 594.410156 407.167969 594.410156 C 403.515625 594.410156 392.820312 592.625 387.0625 591.042969 C 384.75 590.40625 379.097656 589.160156 374.410156 588.230469 C 352.925781 584.003906 349.695312 580.734375 328.945312 579.738281 C 309.121094 578.789062 304.839844 577.238281 292.695312 566.660156 C 289.449219 563.835938 282.6875 559.984375 278.960938 558.835938 C 275.136719 557.65625 275.410156 557.152344 279.871094 557.152344 C 284.214844 557.152344 291.445312 558.785156 297.210938 561.0625 C 298.8125 561.699219 303.273438 563.050781 307.058594 564.035156 C 312.765625 565.523438 315.070312 565.847656 320.195312 565.867188 C 327.34375 565.898438 329.742188 565.230469 341.089844 560.113281 C 348.714844 556.679688 357.617188 553.207031 362.378906 551.816406 C 366.277344 550.671875 369.140625 548.816406 372.050781 545.519531 C 372.730469 544.742188 373.605469 543.972656 374.417969 543.394531 C 393.335938 560.160156 414.480469 574.371094 437.359375 585.339844 " fill-opacity="1" fill-rule="nonzero"/><g clip-path="url(#cfc613e86f)"><path fill="#0c0a27" d="M 701.386719 555.785156 C 699.882812 560.53125 698.019531 564.703125 696.023438 567.757812 C 694.734375 569.730469 693.667969 571.664062 693.667969 572.019531 C 693.667969 572.9375 688.089844 581.292969 685.996094 585.425781 C 675.882812 605.445312 654.6875 614.878906 637.070312 627.261719 C 622.277344 637.660156 606.191406 648.472656 603.589844 649.777344 C 600.535156 651.300781 593.945312 653.75 591.15625 654.390625 C 589.378906 654.796875 590.027344 654.332031 599.914062 648.066406 C 610.023438 641.671875 610.667969 636.285156 620.972656 623.71875 C 625.875 617.726562 633.289062 606 634.382812 602.484375 C 635.277344 599.585938 637.335938 595.644531 639.417969 592.625 C 641.058594 591.957031 642.558594 591.488281 643.082031 591.488281 C 643.761719 591.488281 670.851562 581.402344 701.449219 555.246094 C 701.472656 555.390625 701.453125 555.570312 701.386719 555.785156 " fill-opacity="1" fill-rule="nonzero"/></g><path fill="#0c0a27" d="M 462.699219 252.378906 C 462.65625 253.296875 465.390625 252.699219 468.890625 251.03125 C 473.882812 248.652344 478.382812 247.695312 484.535156 247.695312 C 490.152344 247.695312 491.988281 248.160156 502.214844 252.203125 C 517.175781 258.121094 518.507812 258.277344 520.300781 254.296875 C 522.714844 248.949219 521.074219 246.863281 512.210938 244.058594 C 504.695312 241.679688 494.707031 239.359375 490.351562 238.980469 C 479.042969 238.007812 462.875 248.613281 462.699219 252.378906 " fill-opacity="1" fill-rule="nonzero"/><path fill="#0c0a27" d="M 601.15625 274.820312 C 594.902344 278.625 590.199219 279.011719 578.058594 276.726562 C 566.085938 274.472656 559.863281 274.820312 558.90625 277.792969 C 558.378906 279.433594 559.535156 279.886719 564.335938 279.90625 C 571.28125 279.933594 573.210938 280.617188 577.042969 284.390625 C 582.808594 290.078125 579.609375 285.089844 584.441406 288.390625 C 586.640625 289.890625 589.183594 290.566406 589.183594 289.648438 C 589.183594 289.210938 586.335938 286.710938 584.382812 284.964844 C 591.273438 288.210938 595.398438 290.4375 595.398438 288.351562 C 595.398438 288.039062 594.578125 287.257812 593.5625 286.601562 C 592.546875 285.945312 592.175781 285.566406 592.742188 285.75 C 595 286.5 603.300781 286.8125 603.300781 286.148438 C 603.300781 285.816406 602.566406 285.363281 601.722656 285.179688 C 589.097656 282.371094 599.855469 283.015625 603.558594 281.601562 C 604.855469 281.105469 604.996094 280.875 604.40625 280.164062 C 603.914062 279.574219 603.132812 279.421875 601.832031 279.660156 C 598.785156 280.222656 598.527344 279.363281 601.210938 277.582031 C 606.964844 273.773438 606.917969 271.316406 601.15625 274.820312 " fill-opacity="1" fill-rule="nonzero"/><path fill="#0c0a27" d="M 465.609375 274.628906 C 465.878906 276.003906 471.285156 279.054688 471.632812 279.941406 C 471.738281 280.21875 470.527344 280.445312 468.949219 280.445312 C 466.859375 280.445312 466.066406 280.664062 466.066406 281.238281 C 466.066406 282.078125 470.363281 283.269531 473.410156 283.269531 C 474.371094 283.269531 475.105469 283.515625 475.105469 283.832031 C 475.105469 284.308594 473.75 284.765625 469.289062 285.785156 C 468.382812 285.996094 467.804688 286.4375 467.9375 286.824219 C 468.433594 288.273438 476.183594 286.839844 477.648438 286.601562 L 476.34375 287.734375 C 475.019531 288.890625 475.105469 290.046875 476.515625 290.046875 C 477.460938 290.046875 485.796875 285.800781 487.246094 285.078125 C 482.570312 289.164062 481.878906 289.921875 481.878906 290.160156 C 481.878906 291.152344 484.59375 290.425781 486.625 288.886719 C 491.433594 285.25 487.605469 291.257812 493.90625 285.105469 C 495.832031 283.230469 498.046875 281.496094 498.828125 281.261719 C 499.597656 281.035156 502.777344 280.6875 505.882812 280.503906 C 511.1875 280.183594 511.539062 280.085938 511.699219 278.894531 C 511.835938 277.875 511.476562 277.457031 509.890625 276.78125 C 507.015625 275.5625 502.265625 275.71875 493.0625 277.339844 C 480.582031 279.542969 475.824219 279.191406 469.851562 275.648438 C 466.183594 273.472656 465.34375 273.269531 465.609375 274.628906 " fill-opacity="1" fill-rule="nonzero"/><path fill="#0c0a27" d="M 510.507812 328.503906 C 510.464844 331.550781 511.136719 332.574219 514.183594 334.125 C 516.613281 335.363281 519.121094 335.648438 517.234375 334.472656 C 514.019531 332.460938 512.375 330.523438 512.375 328.726562 C 512.375 326.855469 514.882812 321.613281 517.253906 318.507812 C 517.988281 317.546875 518.410156 316.582031 518.195312 316.375 C 517.328125 315.539062 516.300781 316.191406 514.390625 318.789062 C 514.761719 318.789062 510.589844 322.601562 510.507812 328.503906 " fill-opacity="1" fill-rule="nonzero"/><path fill="#0c0a27" d="M 553.71875 323.816406 C 555.757812 328.726562 555.582031 330.023438 552.417969 333.1875 C 551.234375 334.375 550.339844 335.519531 550.484375 335.671875 C 551.054688 336.265625 553.050781 335.054688 554.945312 332.964844 C 556.613281 331.121094 556.992188 330.253906 556.992188 328.273438 C 556.992188 324.777344 553.285156 317.683594 552.296875 319.296875 C 552.371094 319.296875 551.871094 319.378906 553.71875 323.816406 " fill-opacity="1" fill-rule="nonzero"/><path fill="#0c0a27" d="M 517.574219 327.429688 C 515.902344 329.097656 517.125 330.703125 520.058594 330.703125 C 520.816406 330.703125 522.660156 331.175781 524.238281 331.777344 C 528.585938 333.4375 528.640625 331.972656 524.351562 328.707031 C 521.695312 326.6875 518.851562 326.152344 517.574219 327.429688 " fill-opacity="1" fill-rule="nonzero"/><path fill="#0c0a27" d="M 544.289062 328.238281 C 542.253906 329.324219 540.617188 330.722656 540.617188 331.378906 C 540.617188 332.089844 547.730469 331.9375 549.367188 331.199219 C 550.894531 330.503906 551.214844 329.105469 550.101562 327.992188 C 549.144531 327.035156 546.320312 327.152344 544.289062 328.238281 " fill-opacity="1" fill-rule="nonzero"/><path fill="#0c0a27" d="M 523.621094 352.417969 C 518.171875 354.5 513.652344 357.457031 505.25 364.417969 C 502.859375 366.394531 500.660156 368.035156 500.394531 368.023438 C 500.128906 368.015625 499.898438 368.457031 499.875 369.019531 C 499.789062 371.386719 505.898438 375.632812 513.972656 378.8125 C 516.699219 379.886719 520.230469 381.285156 521.824219 381.921875 C 530.105469 385.230469 544.191406 383.78125 555.808594 378.433594 C 562.828125 375.199219 571.042969 370.226562 571.082031 369.179688 C 571.089844 368.875 569.425781 367.390625 567.390625 365.90625 C 553.425781 355.699219 550.425781 349.921875 537.347656 352.546875 C 534.847656 353.046875 534.03125 353.007812 532.558594 352.328125 C 529.472656 350.898438 527.523438 350.917969 523.621094 352.417969 " fill-opacity="1" fill-rule="nonzero"/><path fill="#0c0a27" d="M 722.011719 389.664062 C 717.105469 389.664062 717.113281 382.050781 722.011719 382.050781 C 726.914062 382.050781 726.902344 389.664062 722.011719 389.664062 Z M 692.648438 408.972656 C 687.65625 408.152344 682.84375 411.203125 681.464844 416.066406 L 677.675781 429.449219 L 675.585938 415.699219 C 674.820312 410.703125 670.429688 407.074219 665.378906 407.261719 L 651.480469 407.792969 L 663.910156 401.554688 C 668.433594 399.285156 670.527344 393.988281 668.78125 389.238281 L 663.984375 376.1875 L 673.757812 386.082031 C 677.316406 389.675781 683 390.035156 686.976562 386.90625 L 697.910156 378.316406 L 691.519531 390.667969 C 689.199219 395.15625 690.617188 400.671875 694.816406 403.492188 L 706.371094 411.234375 Z M 680.375 328.449219 C 686.175781 328.449219 686.164062 337.445312 680.375 337.445312 C 674.585938 337.445312 674.59375 328.449219 680.375 328.449219 Z M 683.878906 363.121094 C 678.082031 363.121094 678.09375 354.125 683.878906 354.125 C 689.671875 354.125 689.664062 363.121094 683.878906 363.121094 Z M 633.125 190.015625 C 631.582031 190.390625 630.363281 191.578125 629.964844 193.121094 L 627.273438 203.449219 L 624.757812 193.074219 C 624.382812 191.53125 623.191406 190.320312 621.65625 189.917969 L 611.320312 187.226562 L 621.699219 184.714844 C 623.242188 184.335938 624.457031 183.144531 624.855469 181.609375 L 627.546875 171.277344 L 630.0625 181.652344 C 630.4375 183.191406 631.628906 184.40625 633.167969 184.804688 L 643.5 187.496094 Z M 637.1875 209.664062 C 633.621094 209.664062 633.632812 204.132812 637.1875 204.132812 C 640.753906 204.132812 640.75 209.664062 637.1875 209.664062 Z M 622.070312 479.207031 C 620.527344 479.582031 619.3125 480.773438 618.910156 482.3125 L 616.222656 492.644531 L 613.707031 482.265625 C 613.332031 480.726562 612.140625 479.511719 610.601562 479.113281 L 600.269531 476.417969 L 610.644531 473.902344 C 612.191406 473.527344 613.398438 472.335938 613.804688 470.796875 L 616.496094 460.472656 L 619.007812 470.847656 C 619.386719 472.386719 620.578125 473.601562 622.113281 474 L 632.445312 476.691406 Z M 616.179688 205.691406 C 619.746094 205.691406 619.742188 211.21875 616.179688 211.21875 C 612.613281 211.21875 612.617188 205.691406 616.179688 205.691406 Z M 576.109375 389.828125 C 569.335938 398.296875 566.667969 402.183594 562.617188 409.476562 C 559.511719 415.070312 559.445312 415.140625 556.117188 416.480469 C 552.929688 417.769531 552.136719 417.839844 540.617188 417.894531 C 529.261719 417.941406 528.082031 417.851562 522.488281 416.425781 C 515.085938 414.550781 506.675781 411.097656 501.25 407.71875 C 495.953125 404.414062 478.824219 387.117188 472.238281 378.421875 C 462.25 365.230469 457.023438 354.476562 452.191406 337.195312 C 449.101562 326.128906 450.628906 329.746094 448.28125 286.65625 C 447.324219 269.117188 447.304688 255.214844 447.207031 243.574219 C 455.5 240.566406 455.21875 240.894531 465.222656 235.050781 C 487.214844 222.203125 507.628906 198.828125 515.765625 192.371094 C 522.335938 187.164062 532.765625 183.503906 544.683594 182.230469 C 551.175781 181.535156 555.496094 180.472656 557.273438 179.128906 C 558.742188 178.027344 559.816406 178.03125 559.816406 179.140625 C 559.902344 179.140625 559.386719 178.652344 562.027344 186.875 C 564.996094 196.136719 565.050781 196.457031 564.296875 200.316406 C 563.070312 206.5625 558.007812 212.664062 551.175781 216.148438 C 547.507812 218.015625 536.347656 222.847656 535.703125 222.847656 C 535.484375 222.847656 532.257812 224.359375 528.527344 226.207031 C 515.710938 232.5625 513.441406 236.464844 524.859375 232.507812 C 528.105469 231.386719 531.300781 230.746094 534.96875 230.476562 C 546.039062 229.675781 556.632812 227.128906 564.617188 223.359375 C 572.695312 219.542969 579.429688 212.089844 581.824219 204.324219 C 582.367188 202.574219 583.03125 201.089844 583.3125 200.992188 C 584.082031 200.738281 596.21875 210.707031 598.441406 213.417969 C 603.144531 219.164062 604.929688 225.558594 605.386719 238.320312 L 605.730469 247.917969 C 593.417969 239.132812 585.253906 236.144531 569.417969 240.269531 C 552.929688 244.566406 549.386719 246.324219 549.484375 250.175781 C 549.542969 252.664062 551.089844 255.492188 552.8125 256.289062 C 554.289062 256.96875 556.878906 256.21875 566.878906 252.21875 C 578.566406 247.539062 580.105469 247.128906 586.078125 247.128906 C 592.515625 247.128906 596.761719 247.980469 601.832031 250.304688 L 605.390625 251.925781 C 605.84375 258.328125 606.640625 270.09375 607.300781 276.496094 C 608.328125 286.375 606.769531 295.347656 602.660156 303.316406 C 598.679688 311.03125 595.28125 314.90625 583.476562 325.195312 C 575.125 332.484375 570.53125 337.480469 569.710938 340.191406 C 568.523438 344.121094 574.949219 337.40625 581.277344 333.1875 C 586.671875 329.59375 590.332031 327.132812 596.75 322.863281 C 604.558594 317.667969 608.777344 312.746094 616.417969 299.925781 C 617.257812 298.515625 618.15625 297.386719 618.4375 297.386719 C 619.222656 297.386719 619.042969 305.195312 621.203125 315.175781 C 622.46875 320.992188 622.628906 322.871094 622.355469 328.445312 C 621.851562 338.835938 618.574219 348.027344 612.457031 356.230469 C 602.171875 370.007812 595.398438 365.707031 576.109375 389.828125 Z M 591.289062 396.941406 C 590.972656 397.796875 589.464844 405.863281 587.472656 417.382812 C 587.199219 418.957031 586.257812 421.957031 585.347656 424.15625 C 583.257812 429.210938 582.878906 430.824219 580.441406 444.882812 C 578.292969 457.25 577.792969 459.128906 575.363281 463.917969 C 573.492188 467.59375 562.46875 478.875 556.429688 483.289062 C 546.882812 490.261719 534.128906 499.117188 532.203125 500.097656 C 528.28125 502.101562 521.570312 510.824219 518.871094 514.289062 L 516.46875 511.574219 C 511.457031 505.933594 505.351562 494.355469 502.242188 484.582031 C 490.988281 449.257812 489.085938 448.394531 474.484375 432.96875 C 476.191406 422.949219 476.816406 414.015625 477.074219 402.421875 C 477.207031 396.660156 477.320312 391.898438 477.347656 391.804688 C 477.40625 391.546875 490.628906 405.46875 490.386719 405.46875 C 491.785156 407.246094 497.523438 411.378906 501.082031 413.160156 C 505.617188 415.4375 513.054688 417.652344 520.285156 418.882812 C 529.601562 420.464844 551.070312 420.648438 555.582031 419.183594 C 557.105469 418.691406 558.398438 418.335938 558.449219 418.398438 C 558.660156 418.628906 554.945312 427.492188 552.609375 432.351562 C 549.835938 438.109375 544.375 447.375 542.695312 449.179688 C 540.886719 451.117188 532.539062 457.179688 527.453125 460.246094 C 524.066406 462.292969 516.542969 465.664062 515.367188 465.664062 C 515.277344 465.664062 515.203125 465.949219 515.203125 466.289062 C 515.203125 467.664062 521.132812 466.5 525.421875 464.28125 C 529.949219 461.949219 538.472656 456.367188 543.4375 452.484375 C 548.570312 448.472656 554.742188 440.308594 560.167969 430.375 C 567.558594 416.820312 568.234375 415.96875 578.792969 406.882812 C 591.554688 395.902344 591.71875 395.769531 591.289062 396.941406 Z M 555.484375 581.371094 C 549.6875 581.371094 549.699219 572.378906 555.484375 572.378906 C 561.277344 572.378906 561.269531 581.371094 555.484375 581.371094 Z M 538.363281 540.78125 C 543.269531 540.78125 543.257812 548.386719 538.363281 548.386719 C 533.460938 548.386719 533.464844 540.78125 538.363281 540.78125 Z M 533.246094 601.613281 C 531.703125 601.988281 530.488281 603.183594 530.089844 604.71875 L 527.398438 615.050781 L 524.878906 604.675781 C 524.503906 603.128906 523.316406 601.917969 521.777344 601.515625 L 511.445312 598.824219 L 521.824219 596.308594 C 523.363281 595.933594 524.578125 594.742188 524.976562 593.207031 L 527.667969 582.875 L 530.1875 593.25 C 530.558594 594.789062 531.75 596.003906 533.292969 596.402344 L 543.625 599.097656 Z M 460.550781 470.578125 C 455.648438 470.578125 455.652344 462.972656 460.550781 462.972656 C 465.453125 462.972656 465.445312 470.578125 460.550781 470.578125 Z M 444.722656 326.75 C 440.640625 320.636719 436.148438 317.855469 433.199219 310.9375 C 431.542969 307.050781 431.390625 306.195312 431.363281 300.488281 C 431.339844 294.902344 431.503906 293.855469 433.03125 290.046875 C 434.363281 286.714844 435.5625 284.929688 438.644531 281.691406 C 443.167969 276.921875 443.367188 277 443.433594 283.550781 C 443.503906 289.882812 445.183594 303.851562 446.414062 329.289062 Z M 398.835938 325.808594 L 407.246094 347.367188 L 391.566406 330.351562 L 377.097656 348.410156 L 383.996094 326.320312 L 361.121094 322.828125 L 383.699219 317.753906 L 375.292969 296.199219 L 390.96875 313.214844 L 405.4375 295.15625 L 398.539062 317.246094 L 421.414062 320.738281 Z M 407.246094 441.316406 C 401.453125 441.316406 401.460938 432.328125 407.246094 432.328125 C 413.042969 432.328125 413.03125 441.316406 407.246094 441.316406 Z M 401.414062 415.640625 C 395.613281 415.640625 395.625 406.648438 401.414062 406.648438 C 407.207031 406.648438 407.195312 415.640625 401.414062 415.640625 Z M 514.628906 158.054688 C 520.429688 158.054688 520.417969 167.046875 514.628906 167.046875 C 508.835938 167.046875 508.847656 158.054688 514.628906 158.054688 Z M 602.171875 162.71875 C 607.964844 162.71875 607.957031 171.714844 602.171875 171.714844 C 596.375 171.714844 596.386719 162.71875 602.171875 162.71875 Z M 482.335938 598.183594 C 477.433594 598.183594 477.441406 590.578125 482.335938 590.578125 C 487.242188 590.578125 487.234375 598.183594 482.335938 598.183594 Z M 716.917969 308.90625 C 715.128906 306.152344 711.402344 299.421875 708.664062 294 C 697.148438 271.203125 693.828125 272.957031 683.851562 253.058594 C 679.546875 244.472656 676.78125 237.078125 669.378906 214.378906 C 660.972656 188.570312 658.46875 182.804688 651.433594 172.984375 C 640.960938 158.371094 626.117188 146.957031 609.007812 140.351562 C 596.1875 135.40625 580.300781 134.972656 570.152344 139.292969 L 567.554688 140.402344 L 564.789062 137.820312 C 561.535156 134.785156 555.074219 131.625 549.765625 130.480469 C 546.039062 129.671875 531.769531 128.972656 528.476562 129.433594 C 528.542969 129.433594 525.074219 129.882812 521.695312 130.292969 C 518.910156 130.632812 512.039062 132.058594 506.503906 133.4375 C 482.5625 139.414062 464.90625 146.777344 443.761719 159.597656 C 424.175781 171.472656 421.800781 171.613281 397.480469 196.027344 C 379.597656 213.980469 376.347656 216.582031 367.742188 219.828125 C 365.089844 220.832031 359.332031 222.320312 355.035156 223.117188 C 332.617188 227.265625 326.007812 230.292969 312.964844 242.355469 C 305.769531 249.011719 294.832031 254.796875 286.816406 256.203125 C 283.035156 256.863281 275.332031 256.683594 273.320312 255.882812 C 271.851562 255.300781 272.132812 257.132812 273.660156 258.109375 C 275.976562 259.589844 283.652344 260.3125 289.636719 259.609375 C 299.242188 258.476562 303.363281 256.332031 321.777344 242.921875 C 326.972656 239.136719 334.902344 235.132812 339.84375 233.804688 C 342.355469 233.136719 346.566406 232.855469 356.109375 232.726562 C 370.34375 232.535156 373.992188 232.25 382.203125 230.6875 C 385.253906 230.109375 387.867188 229.699219 387.957031 229.792969 C 388.222656 230.074219 382.246094 239.558594 379.703125 242.894531 C 376.21875 247.460938 354.96875 268.375 355.035156 268.300781 C 336.855469 295.746094 332.449219 303.296875 322.167969 308.625 C 315.371094 312.148438 308.898438 313.382812 298.617188 313.121094 C 291.503906 312.933594 290.691406 313.011719 290.527344 313.878906 C 290.300781 315.058594 295.285156 317.425781 302.96875 319.773438 C 313.585938 323.023438 327.734375 321.46875 337.417969 315.996094 C 346.695312 310.746094 352.917969 304.503906 363.816406 289.480469 C 368.691406 282.757812 371.632812 279.316406 372.488281 279.316406 C 374.023438 279.316406 367.753906 292.136719 361.824219 301.113281 C 353.101562 314.328125 347.824219 325.195312 343.945312 337.929688 C 342.144531 343.84375 342.105469 344.199219 342.132812 354.421875 C 342.164062 364.699219 342.191406 364.957031 344.023438 370.515625 C 346.527344 378.09375 348.460938 380.113281 350.550781 386.722656 C 352.265625 392.144531 356.484375 399.953125 360.089844 404.394531 C 361.34375 405.941406 365.089844 409.894531 368.367188 413.136719 C 376.894531 421.5625 376.894531 421.5625 377.40625 444.488281 C 377.730469 459.058594 377.980469 462.667969 378.882812 466.007812 C 381.605469 476.085938 389.714844 483.753906 401.683594 487.570312 C 406.359375 489.0625 410.664062 489.789062 417.78125 490.269531 C 424.140625 490.699219 425.292969 491.15625 432.75 496.171875 C 438.75 500.207031 443.25 502.484375 455.847656 507.84375 C 470.074219 513.902344 483.460938 520.550781 486.171875 522.90625 C 494.589844 530.222656 497.507812 545.746094 491.933594 556.804688 C 487.152344 566.296875 480.1875 573.238281 470.699219 577.984375 C 466.859375 579.902344 456.382812 584.226562 452.792969 585.363281 C 444.230469 588.089844 437.832031 591.398438 427.101562 598.652344 C 406.789062 612.390625 405.042969 608.917969 390.953125 613.132812 C 384.683594 615.011719 369.453125 621.394531 364.296875 624.3125 C 360.628906 626.386719 355.234375 628.300781 353.0625 628.300781 C 349.714844 628.300781 351.59375 629.34375 357.746094 630.910156 C 363.195312 632.292969 365.203125 632.53125 371.472656 632.53125 C 378.082031 632.53125 380.058594 632.265625 391.234375 629.851562 C 398.074219 628.375 407.347656 626.785156 411.851562 626.3125 C 423.996094 625.042969 441.414062 624.636719 449.40625 625.429688 C 462.382812 626.710938 485.265625 631.773438 504.695312 637.660156 C 527.34375 644.515625 543.703125 645.65625 561.792969 641.628906 C 564.542969 641.015625 567.265625 640.277344 569.9375 639.375 C 600.589844 628.992188 611.359375 599.0625 627.382812 573.984375 C 636.234375 560.128906 647.730469 547.378906 658.992188 535.589844 C 671.683594 522.308594 688.476562 513.871094 701.554688 501.015625 C 710.890625 491.84375 718.011719 480.710938 725.046875 469.679688 C 730.5625 461.03125 729.636719 451.5625 732.324219 441.890625 C 739.589844 415.71875 735.273438 388.21875 734.65625 369.667969 C 733.855469 345.667969 728.195312 326.292969 716.917969 308.90625 " fill-opacity="1" fill-rule="nonzero"/><path fill="#e1a344" d="M 417.328125 409.433594 L 414.8125 399.058594 C 414.4375 397.515625 413.242188 396.304688 411.707031 395.902344 L 401.375 393.210938 L 411.75 390.695312 C 413.292969 390.324219 414.503906 389.128906 414.90625 387.59375 L 417.601562 377.261719 L 420.113281 387.636719 C 420.488281 389.179688 421.683594 390.390625 423.21875 390.792969 L 433.550781 393.488281 L 423.175781 396 C 421.628906 396.371094 420.417969 397.566406 420.015625 399.105469 L 417.328125 409.433594 " fill-opacity="1" fill-rule="nonzero"/><path fill="#e1a344" d="M 431.25 203.71875 L 440.804688 198.925781 C 444.28125 197.183594 445.890625 193.109375 444.546875 189.460938 L 440.863281 179.425781 L 448.378906 187.03125 C 451.109375 189.796875 455.480469 190.066406 458.535156 187.667969 L 466.941406 181.058594 L 462.027344 190.554688 C 460.246094 194.007812 461.332031 198.25 464.558594 200.414062 L 473.445312 206.363281 L 462.894531 204.625 C 459.058594 203.996094 455.359375 206.347656 454.300781 210.082031 L 451.386719 220.371094 L 449.777344 209.800781 C 449.195312 205.957031 445.816406 203.167969 441.933594 203.316406 L 431.25 203.71875 " fill-opacity="1" fill-rule="nonzero"/><path fill="#e1a344" d="M 491.285156 176.730469 C 485.5 176.730469 485.492188 185.71875 491.285156 185.71875 C 497.070312 185.71875 497.082031 176.730469 491.285156 176.730469 " fill-opacity="1" fill-rule="nonzero"/><path fill="#e1a344" d="M 674.539062 302.171875 C 670.984375 302.171875 670.972656 307.699219 674.539062 307.699219 C 678.101562 307.699219 678.109375 302.171875 674.539062 302.171875 " fill-opacity="1" fill-rule="nonzero"/><path fill="#e1a344" d="M 571.824219 556.601562 C 568.261719 556.601562 568.257812 562.132812 571.824219 562.132812 C 575.386719 562.132812 575.390625 556.601562 571.824219 556.601562 " fill-opacity="1" fill-rule="nonzero"/><path fill="#e1a344" d="M 394.40625 381.53125 C 390.847656 381.53125 390.84375 387.066406 394.40625 387.066406 C 397.96875 387.066406 397.972656 381.53125 394.40625 381.53125 " fill-opacity="1" fill-rule="nonzero"/><path fill="#e1a344" d="M 436.425781 222.808594 C 432.863281 222.808594 432.859375 228.339844 436.425781 228.339844 C 439.988281 228.339844 439.992188 222.808594 436.425781 222.808594 " fill-opacity="1" fill-rule="nonzero"/><path fill="#e1a344" d="M 674.539062 495.910156 L 662.414062 479.261719 L 647.777344 493.757812 L 656.132812 474.925781 L 636.261719 469.5 L 656.742188 467.324219 L 651.511719 447.40625 L 663.640625 464.050781 L 678.273438 449.558594 L 669.917969 468.386719 L 689.789062 473.808594 L 669.304688 475.992188 L 674.539062 495.910156 " fill-opacity="1" fill-rule="nonzero"/><path fill="#e1a344" d="M 634.855469 229.035156 C 631.292969 229.035156 631.289062 234.566406 634.855469 234.566406 C 638.417969 234.566406 638.421875 229.035156 634.855469 229.035156 " fill-opacity="1" fill-rule="nonzero"/><path fill="#e1a344" d="M 597.503906 528.332031 C 592.609375 528.332031 592.601562 535.941406 597.503906 535.941406 C 602.402344 535.941406 602.40625 528.332031 597.503906 528.332031 " fill-opacity="1" fill-rule="nonzero"/><path fill="#e1a344" d="M 566.375 509.65625 C 561.484375 509.65625 561.472656 517.265625 566.375 517.265625 C 571.277344 517.265625 571.28125 509.65625 566.375 509.65625 " fill-opacity="1" fill-rule="nonzero"/><path fill="#e1a344" d="M 448.101562 431.851562 C 443.203125 431.851562 443.195312 439.453125 448.101562 439.453125 C 452.992188 439.453125 453.003906 431.851562 448.101562 431.851562 " fill-opacity="1" fill-rule="nonzero"/><path fill="#e1a344" d="M 656.640625 273.121094 C 651.75 273.121094 651.738281 280.730469 656.640625 280.730469 C 661.539062 280.730469 661.550781 273.121094 656.640625 273.121094 " fill-opacity="1" fill-rule="nonzero"/><path fill="#e1a344" d="M 715.785156 338.480469 C 710.886719 338.480469 710.882812 346.089844 715.785156 346.089844 C 720.679688 346.089844 720.6875 338.480469 715.785156 338.480469 " fill-opacity="1" fill-rule="nonzero"/><path stroke-linecap="butt" transform="matrix(0.854955, 0, 0, 0.854955, 187.401776, 129.794253)" fill="none" stroke-linejoin="miter" d="M 528.806551 656.835547 L 528.093795 693.999399 L 298.545098 693.999399 L 294.277697 670.706884 C 307.788087 662.409668 328.887506 652.216337 357.575953 640.122322 L 326.991391 561.531786 L 153.627092 561.531786 L 121.621586 647.414368 L 188.657244 656.835547 L 187.944487 693.999399 L -10.133271 693.999399 L -14.578861 670.706884 C 0.000663921 661.459326 20.14974 651.741166 45.872938 641.547835 L 206.791413 246.095937 L 198.078422 223.516179 L 293.564941 197.377206 L 477.063174 649.548069 Z M 305.832576 506.055575 L 240.40062 334.29041 L 174.785907 506.055575 Z M 305.832576 506.055575 " stroke="#e1a344" stroke-width="10.924665" stroke-opacity="1" stroke-miterlimit="4"/><g fill="#0c0a27" fill-opacity="1"><g transform="translate(187.401776, 723.133327)"><g><path d="M 452.0625 -31.75 L 451.4375 0 L 255.296875 0 L 251.5625 -19.921875 C 263.1875 -26.984375 281.242188 -35.703125 305.734375 -46.078125 L 279.578125 -113.328125 L 131.390625 -113.328125 L 103.984375 -39.84375 L 161.265625 -31.75 L 160.65625 0 L -8.71875 0 L -12.453125 -19.921875 C 0.00390625 -27.804688 17.234375 -36.109375 39.234375 -44.828125 L 176.84375 -382.9375 L 169.359375 -402.25 L 250.9375 -424.65625 L 407.84375 -37.984375 Z M 261.515625 -160.65625 L 205.484375 -307.59375 L 149.4375 -160.65625 Z M 261.515625 -160.65625 "/></g></g></g></svg>